<?xml version="1.0" encoding="UTF-8" standalone="no"?>
<!-- Created with Inkscape (http://www.inkscape.org/) -->

<svg
   xmlns:dc="http://purl.org/dc/elements/1.1/"
   xmlns:cc="http://creativecommons.org/ns#"
   xmlns:rdf="http://www.w3.org/1999/02/22-rdf-syntax-ns#"
   xmlns:svg="http://www.w3.org/2000/svg"
   xmlns="http://www.w3.org/2000/svg"
   xmlns:sodipodi="http://sodipodi.sourceforge.net/DTD/sodipodi-0.dtd"
   xmlns:inkscape="http://www.inkscape.org/namespaces/inkscape"
   width="622.10669mm"
   height="577.87939mm"
   viewBox="0 0 622.10669 577.87939"
   version="1.1"
   id="svg1740"
   inkscape:version="0.92.4 (5da689c313, 2019-01-14)"
   sodipodi:docname="registrate.svg">
  <defs
     id="defs1734" />
  <sodipodi:namedview
     id="base"
     pagecolor="#ffffff"
     bordercolor="#666666"
     borderopacity="1.0"
     inkscape:pageopacity="0.0"
     inkscape:pageshadow="2"
     inkscape:zoom="0.24748737"
     inkscape:cx="1238.8245"
     inkscape:cy="28.841546"
     inkscape:document-units="mm"
     inkscape:current-layer="layer7"
     showgrid="false"
     inkscape:window-width="1920"
     inkscape:window-height="1057"
     inkscape:window-x="1912"
     inkscape:window-y="-8"
     inkscape:window-maximized="1"
     fit-margin-top="0"
     fit-margin-left="0"
     fit-margin-right="0"
     fit-margin-bottom="0" />
  <metadata
     id="metadata1737">
    <rdf:RDF>
      <cc:Work
         rdf:about="">
        <dc:format>image/svg+xml</dc:format>
        <dc:type
           rdf:resource="http://purl.org/dc/dcmitype/StillImage" />
        <dc:title></dc:title>
      </cc:Work>
    </rdf:RDF>
  </metadata>
  <g
     inkscape:groupmode="layer"
     id="layer7"
     inkscape:label="bg"
     transform="translate(614.57125,75.550581)">
    <path
       style="display:inline;opacity:0.497;fill:#7e254e;fill-opacity:1;stroke:none;stroke-width:0.26499999;stroke-linecap:butt;stroke-linejoin:miter;stroke-miterlimit:4;stroke-dasharray:none;stroke-opacity:1"
       d="m -284.23298,496.97807 c -58.83473,-2.42123 -107.4738,-73.49398 -165.29094,-62.33301 -29.74147,5.7413 -36.99819,65.70311 -66.98272,61.40826 -47.57018,-6.81376 -72.9594,-75.31097 -74.64666,-123.33703 -1.31827,-37.52334 55.00526,-62.84552 51.41588,-100.22004 -3.85969,-40.1892 -73.46893,-54.92279 -74.7879,-95.27534 -1.45093,-44.38989 31.64436,-101.527203 75.25071,-109.956493 20.65491,-3.99269 31.66096,32.06887 52.48638,35.046873 78.31512,11.19892 215.68226,7.18634 226.40511,-71.195363 3.56844,-26.0842593 -70.20369,-17.035239 -66.21246,-43.05816 8.32411,-54.273608 123.40143,-86.381318 158.65928,-44.288548 15.05566,17.974277 -34.91952,40.357649 -30.49932,63.3839467 14.65758,76.3559113 130.065652,92.1785313 171.775156,157.7940043 19.8818197,31.27714 38.41041,69.34902 33.3527897,106.06366 -3.5243,25.58402 -21.8866697,49.12887 -42.3589897,64.87197 -20.058914,15.42516 -59.689554,1.73125 -72.088176,23.78956 -13.65988,24.30224 33.043422,57.45051 18.895542,81.47196 -34.373192,58.36152 -127.699222,58.61878 -195.373682,55.83375 z"
       id="path2285"
       inkscape:connector-curvature="0"
       sodipodi:nodetypes="ssssssssssssssssss" />
  </g>
  <g
     inkscape:groupmode="layer"
     id="layer6"
     inkscape:label="cuadro"
     transform="translate(614.57125,75.550581)">
    <ellipse
       style="display:inline;opacity:1;fill:#ffaaaa;fill-opacity:1;stroke:#ffaaaa;stroke-width:1.40243995;stroke-miterlimit:4;stroke-dasharray:none;stroke-opacity:1"
       id="path2263"
       cx="-375.22641"
       cy="-5.7435689"
       rx="5.1077189"
       ry="4.4482946" />
    <ellipse
       style="display:inline;opacity:1;fill:#ffaaaa;fill-opacity:1;stroke:#ffaaaa;stroke-width:1.40244007;stroke-miterlimit:4;stroke-dasharray:none;stroke-opacity:1"
       id="path2263-9"
       cx="-361.37851"
       cy="-5.7435689"
       rx="5.1077189"
       ry="4.4482946" />
    <ellipse
       style="display:inline;opacity:1;fill:#ffaaaa;fill-opacity:1;stroke:#ffaaaa;stroke-width:1.40244007;stroke-miterlimit:4;stroke-dasharray:none;stroke-opacity:1"
       id="path2263-9-8"
       cx="-347.20087"
       cy="-5.4138417"
       rx="5.1077189"
       ry="4.4482946" />
    <rect
       style="display:inline;opacity:1;fill:#216fa9;fill-opacity:1;stroke:none;stroke-width:1.28214765;stroke-linecap:round;stroke-linejoin:round;stroke-miterlimit:4;stroke-dasharray:none;stroke-opacity:1"
       id="rect2304"
       width="208.16212"
       height="176.17815"
       x="-384.62234"
       y="-32.760715"
       ry="7.3174105" />
    <rect
       style="display:inline;opacity:1;fill:#ffffff;fill-opacity:1;stroke:none;stroke-width:1.38927865;stroke-linecap:round;stroke-linejoin:round;stroke-miterlimit:4;stroke-dasharray:none;stroke-opacity:1"
       id="rect2319"
       width="189.55119"
       height="151.98021"
       x="-375.1134"
       y="-21.428473" />
    <rect
       y="18.029182"
       x="-361.96158"
       height="4.7171192"
       width="117.79081"
       id="rect2223"
       style="display:inline;opacity:1;fill:#216fa9;fill-opacity:1;stroke:#dedede;stroke-width:0;stroke-miterlimit:4;stroke-dasharray:none;stroke-opacity:1" />
    <rect
       style="display:inline;opacity:1;fill:#7e254e;fill-opacity:1;stroke:#dedede;stroke-width:0;stroke-linecap:round;stroke-linejoin:round;stroke-miterlimit:4;stroke-dasharray:none;stroke-opacity:1"
       id="rect2338"
       width="87.869942"
       height="20.509888"
       x="-329.8436"
       y="101.93276" />
    <rect
       y="28.108543"
       x="-361.96158"
       height="4.7171197"
       width="123.50278"
       id="rect2223-9"
       style="display:inline;opacity:1;fill:#dedede;fill-opacity:1;stroke:#dedede;stroke-width:0;stroke-miterlimit:4;stroke-dasharray:none;stroke-opacity:1" />
    <rect
       y="36.391891"
       x="-361.90976"
       height="4.7171197"
       width="123.96908"
       id="rect2223-9-6"
       style="display:inline;opacity:1;fill:#dedede;fill-opacity:1;stroke:#dedede;stroke-width:0;stroke-miterlimit:4;stroke-dasharray:none;stroke-opacity:1" />
    <rect
       y="44.085571"
       x="-361.67661"
       height="4.7171197"
       width="99.139488"
       id="rect2223-9-6-9"
       style="display:inline;opacity:1;fill:#dedede;fill-opacity:1;stroke:#dedede;stroke-width:0;stroke-miterlimit:4;stroke-dasharray:none;stroke-opacity:1" />
    <rect
       y="58.568085"
       x="-361.81906"
       height="4.7171197"
       width="117.79081"
       id="rect2223-2"
       style="display:inline;opacity:1;fill:#216fa9;fill-opacity:1;stroke:#dedede;stroke-width:0;stroke-miterlimit:4;stroke-dasharray:none;stroke-opacity:1" />
    <rect
       y="68.647461"
       x="-361.81906"
       height="4.7171197"
       width="123.82114"
       id="rect2223-9-5"
       style="display:inline;opacity:1;fill:#dedede;fill-opacity:1;stroke:#dedede;stroke-width:0;stroke-miterlimit:4;stroke-dasharray:none;stroke-opacity:1" />
    <rect
       y="76.930817"
       x="-361.76727"
       height="4.7171197"
       width="123.1617"
       id="rect2223-9-6-3"
       style="display:inline;opacity:1;fill:#dedede;fill-opacity:1;stroke:#dedede;stroke-width:0;stroke-miterlimit:4;stroke-dasharray:none;stroke-opacity:1" />
    <rect
       y="84.624481"
       x="-361.53412"
       height="4.7171197"
       width="99.139488"
       id="rect2223-9-6-9-0"
       style="display:inline;opacity:1;fill:#dedede;fill-opacity:1;stroke:#dedede;stroke-width:0;stroke-miterlimit:4;stroke-dasharray:none;stroke-opacity:1" />
    <rect
       style="display:inline;opacity:1;fill:none;fill-opacity:1;stroke:#dedede;stroke-width:1.68020582;stroke-linecap:round;stroke-linejoin:round;stroke-miterlimit:4;stroke-dasharray:none;stroke-opacity:1"
       id="rect2448"
       width="25.664999"
       height="26.43215"
       x="-225.8885"
       y="27.119392" />
    <rect
       style="display:inline;opacity:1;fill:none;fill-opacity:1;stroke:#dedede;stroke-width:1.68020582;stroke-linecap:round;stroke-linejoin:round;stroke-miterlimit:4;stroke-dasharray:none;stroke-opacity:1"
       id="rect2448-8"
       width="25.665001"
       height="26.43215"
       x="-225.74603"
       y="65.680038" />
    <path
       style="display:inline;fill:none;fill-opacity:1;stroke:#27be55;stroke-width:3.41099095;stroke-linecap:butt;stroke-linejoin:miter;stroke-miterlimit:4;stroke-dasharray:none;stroke-opacity:1"
       d="m -221.00676,39.449875 4.25453,7.30211 14.11344,-13.99687"
       id="path2466"
       inkscape:connector-curvature="0"
       sodipodi:nodetypes="ccc" />
    <path
       style="display:inline;fill:none;fill-opacity:1;stroke:#26ba53;stroke-width:3.41099143;stroke-linecap:butt;stroke-linejoin:miter;stroke-miterlimit:4;stroke-dasharray:none;stroke-opacity:1"
       d="m -221.82955,78.669615 4.25452,7.30211 14.11345,-13.99686"
       id="path2466-1"
       inkscape:connector-curvature="0"
       sodipodi:nodetypes="ccc" />
    <flowRoot
       xml:space="preserve"
       id="flowRoot3348"
       style="font-style:normal;font-weight:normal;font-size:40px;line-height:1.25;font-family:sans-serif;letter-spacing:0px;word-spacing:0px;display:inline;fill:#fffbfd;fill-opacity:1;stroke:none"
       transform="matrix(0.42780011,0,0,0.42780011,336.31782,326.29729)"><flowRegion
         id="flowRegion3350"
         style="line-height:1.25;fill:#fffbfd;fill-opacity:1"><rect
           id="rect3352"
           width="166.80734"
           height="45.63155"
           x="-1535.4319"
           y="-526.52112"
           style="line-height:1.25;fill:#fffbfd;fill-opacity:1" /></flowRegion><flowPara
         id="flowPara3354"
         style="font-size:26.66666794px;line-height:1.25;fill:#fffbfd;fill-opacity:1">REGISTRATE</flowPara></flowRoot>    <rect
       y="-11.527153"
       x="-361.99142"
       height="4.7171197"
       width="82.851898"
       id="rect2223-9-9"
       style="display:inline;opacity:1;fill:#dedede;fill-opacity:1;stroke:#dedede;stroke-width:0;stroke-miterlimit:4;stroke-dasharray:none;stroke-opacity:1" />
    <rect
       y="-3.243813"
       x="-361.95667"
       height="4.7171197"
       width="83.164719"
       id="rect2223-9-6-2"
       style="display:inline;opacity:1;fill:#dedede;fill-opacity:1;stroke:#dedede;stroke-width:0;stroke-miterlimit:4;stroke-dasharray:none;stroke-opacity:1" />
    <rect
       y="4.4498668"
       x="-361.80026"
       height="4.7171197"
       width="66.507767"
       id="rect2223-9-6-9-06"
       style="display:inline;opacity:1;fill:#dedede;fill-opacity:1;stroke:#dedede;stroke-width:0;stroke-miterlimit:4;stroke-dasharray:none;stroke-opacity:1" />
  </g>
  <g
     inkscape:label="Capa 1"
     inkscape:groupmode="layer"
     id="layer1"
     transform="translate(614.57125,278.55058)"
     style="display:inline">
    <path
       sodipodi:nodetypes="csccscscsccscscsccscc"
       inkscape:connector-curvature="0"
       id="path1813"
       d="m -465.71658,-69.386538 c 0,0 -14.4019,3.50571 -25.032,9.41326 -26.0324,14.46738 -56.6046,53.6553798 -56.6046,53.6553798 l -37.8696,183.3786482 c 0,0 12.096,12.50467 20.095,14.76368 3.1681,0.89477 9.8424,-0.82019 9.8424,-0.82019 0,0 9.14,7.85835 14.7637,9.43234 5.7938,1.62159 18.0445,-0.41009 18.0445,-0.41009 0,0 -1.0176,5.13315 0.4101,6.97176 4.1367,5.32657 19.2748,6.15154 19.2748,6.15154 h 96.7843 c 0,0 14.8448,-0.55772 19.6849,-5.33136 2.1256,-2.09649 2.4606,-8.61215 2.4606,-8.61215 0,0 15.1617,2.80569 22.1455,0.41011 4.3216,-1.48243 10.6628,-8.61215 10.6628,-8.61215 0,0 9.9275,1.01723 14.3534,-0.82021 6.4378,-2.67255 15.584,-13.94349 15.584,-13.94349 l -35.2158,-185.0725782 c 0,0 -27.6096,-33.2941498 -49.3433,-47.1129398 -12.3638,-7.86109 -32.6412,-12.86159 -32.6412,-12.86159 z"
       style="display:inline;fill:#eabd00;fill-opacity:1;stroke:none;stroke-width:1.4407742px;stroke-linecap:butt;stroke-linejoin:miter;stroke-opacity:1" />
    <path
       sodipodi:nodetypes="ccccc"
       inkscape:connector-curvature="0"
       id="path1853"
       d="m -413.68858,114.47902 5.5637,111.74583 -23.7718,2.7389 -14.6677,-102.43371 z"
       style="display:inline;fill:#fab99c;fill-opacity:1;stroke:none;stroke-width:1.30759156px;stroke-linecap:butt;stroke-linejoin:miter;stroke-opacity:1" />
    <path
       style="display:inline;fill:#fab99c;fill-opacity:1;stroke:none;stroke-width:1.30759156px;stroke-linecap:butt;stroke-linejoin:miter;stroke-opacity:1"
       d="m -484.01048,114.47897 -5.5637,111.74588 23.7719,2.7389 14.6679,-102.43371 z"
       id="path1855"
       inkscape:connector-curvature="0"
       sodipodi:nodetypes="ccccc" />
    <path
       sodipodi:nodetypes="ccsccccc"
       inkscape:connector-curvature="0"
       id="path1857"
       d="m -404.35948,222.36276 -0.3935,55.91193 c 0,0 18.4166,4.64658 24.903,10.56825 2.7818,2.53942 4.4325,9.99278 4.4325,9.99278 l -45.0149,0.25433 -15.5671,-74.37584 15.5057,-4.04991 z"
       style="display:inline;fill:#eabd00;fill-opacity:1;stroke:none;stroke-width:1.30759156px;stroke-linecap:butt;stroke-linejoin:miter;stroke-opacity:1" />
    <path
       style="display:inline;fill:#eabd00;fill-opacity:1;stroke:none;stroke-width:1.30759156px;stroke-linecap:butt;stroke-linejoin:miter;stroke-opacity:1"
       d="m -493.50808,222.3515 0.3933,55.91195 c 0,0 -20.1779,4.5325 -27.4056,11.73818 -2.356,2.34926 -4.2589,9.32719 -4.2589,9.32719 l 47.344,-0.24993 15.5671,-74.37574 -15.5057,-4.04991 z"
       id="path1859"
       inkscape:connector-curvature="0"
       sodipodi:nodetypes="ccsccccc" />
    <path
       sodipodi:nodetypes="cacccccc"
       inkscape:connector-curvature="0"
       id="path2005"
       d="m -477.36708,66.609692 c 0,0 -2.2665,-11.73672 -6.7104,-12.79334 -1.7956,-0.42693 -1.177,3.59322 -4.4346,3.47017 -3.0275,-1.73177 -4.5526,-6.07263 -6.5482,-9.6882 l -15.5017,10.80866 c 4.6661,8.2022 10.526,17.84798 16.2172,22.75917 4.0781,2.23225 11.2593,1.06128 14.5664,0.12458 z"
       style="display:inline;fill:#fab99c;fill-opacity:1;stroke:#000000;stroke-width:0;stroke-linecap:butt;stroke-linejoin:miter;stroke-miterlimit:4;stroke-dasharray:none;stroke-opacity:1" />
    <path
       style="display:inline;fill:#fab99c;fill-opacity:1;stroke:none;stroke-width:1.52072012px;stroke-linecap:butt;stroke-linejoin:miter;stroke-opacity:1"
       d="m -487.59378,-28.721148 -4.5912,-8.26409 -33.9745,38.8717899 37.6474,55.3999701 -15.3038,10.40663 c 0,0 -27.8366,-38.68047 -41.3204,-57.54251 -3.7384,-5.2296002 -4.541,-15.0601502 0.3059,-19.2828599 14.3269,-12.4814601 23.9324,-26.4426901 44.5719,-42.3880601 7.5566,-5.83796 11.3273,-6.27415 17.5619,-9.95113 6.6587,-3.92712 20.7489,-7.22988 20.7489,-7.22988 v -16.032 l 19.5148,-0.1901 0.4064,15.85285 c 0,0 20.0585,5.17273 28.2932,9.97346 22.665,13.21326 44.34589,35.898206 44.34589,35.898206 0.29058,0.346674 2.51617,3.409872 4.88277,5.593399 1.4433,1.331655 1.97486,3.107869 3.68428,2.768224 7.12285,-4.68872 19.38998,-37.228439 26.26076,-45.871282 9.00728,-11.330386 10.48338,4.717547 10.48338,4.717547 0,0 -21.0731,54.5255591 -26.77087,58.8138724 -5.69777,4.2883134 -8.43975,3.6227917 -12.29281,2.8737947 -3.85306,-0.748997 -8.8388,-4.87483563 -8.8388,-4.87483563 l -36.9532,-37.19495547 -7.652,22.64971 -67.6432,-0.30608 z"
       id="path1894"
       inkscape:connector-curvature="0"
       sodipodi:nodetypes="cccccssssccccscscsczzccccc" />
    <path
       style="display:inline;fill:#7e254e;fill-opacity:1;stroke:none;stroke-width:0.60828805;stroke-linecap:butt;stroke-linejoin:miter;stroke-miterlimit:4;stroke-dasharray:none;stroke-opacity:1"
       d="m -422.39938,71.170752 -54.3595,0.17146 c 0,0 -10.8073,17.96195 -14.2017,27.26485 -3.7249,10.208728 -7.0399,31.832018 -7.0399,31.832018 0,0 31.6071,2.38436 47.4421,2.44864 16.4413,0.0668 49.2783,-2.14256 49.2783,-2.14256 0,0 -2.4924,-22.54361 -6.4276,-33.056338 -3.4294,-9.16141 -14.6917,-26.51794 -14.6917,-26.51794 z"
       id="path1888"
       inkscape:connector-curvature="0"
       sodipodi:nodetypes="ccscscsc" />
    <path
       style="display:inline;fill:#7e254e;fill-opacity:1;stroke:none;stroke-width:1.52072012px;stroke-linecap:butt;stroke-linejoin:miter;stroke-opacity:1"
       d="m -477.18718,72.284302 h 54.7878 l 3.0607,-43.15689 c 0,0 0.4484,-7.04842 2.6721,-16.61849 2.7897,-12.00616014 7.32,-27.80548 5.2861,-36.63892 -1.3842,-6.01169 -5.406,-12.33355 -10.4067,-15.30386 -4.8886,-2.90375 -11.3982,-4.4226 -16.8342,-2.7547 -4.9677,1.52427 -11.325,10.71271 -11.325,10.71271 0,0 -6.1136,-7.3408 -10.4065,-8.87625 -4.9963,-1.78702 -11.0718,-1.85946 -15.9161,0.3061 -5.4702,2.44525 -10.371,7.46952 -12.2431,13.1613 -4.5525,13.83987 4.0937,34.8809698 7.3376,53.81855 4.1642,24.30912 3.9873,45.35045 3.9873,45.35045 z"
       id="path1891"
       inkscape:connector-curvature="0"
       sodipodi:nodetypes="cccsssscssssc" />
    <path
       style="display:inline;fill:#fab99c;fill-opacity:1;stroke:none;stroke-width:1.52072012px;stroke-linecap:butt;stroke-linejoin:miter;stroke-opacity:1"
       d="m -466.98678,-159.30656 -23.191,47.52251 15.3974,26.042342 43.3405,-0.57028 12.1658,-26.612602 -6.8433,-21.09999 -31.1748,-12.16577 -7.4135,-15.96754 z"
       id="path1962"
       inkscape:connector-curvature="0" />
    <path
       inkscape:connector-curvature="0"
       id="path1933"
       d="m -433.34078,-108.36242 11.4054,-14.63695"
       style="display:inline;fill:none;stroke:#fffbfb;stroke-width:1.52072012px;stroke-linecap:butt;stroke-linejoin:miter;stroke-opacity:1" />
    <path
       style="display:inline;fill:none;stroke:#fffbfb;stroke-width:1.52072012px;stroke-linecap:butt;stroke-linejoin:miter;stroke-opacity:1"
       d="m -472.11918,-108.55252 -11.4054,-14.63692"
       id="path1937"
       inkscape:connector-curvature="0" />
    <path
       style="display:inline;fill:#604557;fill-opacity:1;stroke:none;stroke-width:1.52072012px;stroke-linecap:butt;stroke-linejoin:miter;stroke-opacity:1"
       d="m -491.50838,-133.8345 c -3.2368,17.95931 -3.9348,36.926582 0,54.745932 0.8435,3.82013 2.4345,7.64245 4.9423,10.64504 4.3726,5.23514 16.7279,11.78559 16.7279,11.78559 l 0.3802,-29.27387 c 0,0 -7.4723,-7.65416 -10.2648,-12.16575 -3.1966,-5.164412 -8.3218,-10.754432 -7.2234,-16.727922 1.1507,-6.25797 9.5442,-8.55497 13.3062,-13.68649 3.3191,-4.52698 6.4761,-9.42001 7.9839,-14.82703 1.3633,-4.88887 0.7603,-15.20718 0.7603,-15.20718 l 2.2811,15.58736 c 0,0 8.3919,5.27301 12.9261,7.22342 5.8543,2.51834 13.24,1.76205 18.2487,5.70271 3.4843,2.74149 5.8501,7.0844 6.8432,11.40539 1.2822,5.57977 0.2883,11.67623 -1.5207,17.1081 -1.978,5.939152 -9.8847,15.967572 -9.8847,15.967572 v 29.65405 c 0,0 11.5532,-8.89845 15.5873,-14.82703 3.2303,-4.74717 5.4128,-10.32245 6.4632,-15.96756 2.7822,-14.952672 2.7468,-30.822202 -0.7605,-45.621592 -1.7513,-7.39045 -4.7571,-14.92669 -9.8846,-20.52974 -4.6806,-5.11458 -11.198,-8.75501 -17.8684,-10.64503 -8.1702,-2.3149 -17.3139,-2.73615 -25.4721,-0.38018 -6.2474,1.80414 -12.2837,5.56878 -16.3478,10.64504 -4.3105,5.38406 -6.0002,12.60153 -7.2234,19.38917 z"
       id="path1925"
       inkscape:connector-curvature="0"
       sodipodi:nodetypes="sssccssssccssssccssssssss" />
    <path
       style="display:inline;fill:#ffffff;fill-opacity:1;stroke:none;stroke-width:1.52072012px;stroke-linecap:butt;stroke-linejoin:miter;stroke-opacity:1"
       d="m -474.21018,-109.88313 20.5297,-6.08289 21.8604,5.89279 c 0,0 0.9264,19.477622 -0.9904,23.247292 -1.9023,3.74147 -5.5958,5.52812 -9.6546,6.59684 -5.699,1.50054 -11.881,1.24734 -17.6784,0.1901 -5.1513,-0.93943 -8.6495,-0.31756 -11.5533,-4.67484 -4.4638,-6.69826 -2.5134,-25.169292 -2.5134,-25.169292 z"
       id="path1928"
       inkscape:connector-curvature="0"
       sodipodi:nodetypes="cccssssc" />
    <path
       style="display:inline;fill:none;stroke:#7e254e;stroke-width:1.52072012px;stroke-linecap:butt;stroke-linejoin:miter;stroke-opacity:1"
       d="m -467.55698,-97.337198 14.6369,-1.710824 14.4469,2.091004"
       id="path1943"
       inkscape:connector-curvature="0" />
    <path
       style="display:inline;fill:none;stroke:#7e254e;stroke-width:1.52072012px;stroke-linecap:butt;stroke-linejoin:miter;stroke-opacity:1"
       d="m -467.36698,-89.923698 h 28.7036"
       id="path1946"
       inkscape:connector-curvature="0" />
    <path
       style="display:inline;fill:none;stroke:#7e254e;stroke-width:1.52072012px;stroke-linecap:butt;stroke-linejoin:miter;stroke-opacity:1"
       d="m -467.74718,-103.80027 14.8271,-3.80179 14.827,4.18197"
       id="path1940"
       inkscape:connector-curvature="0" />
    <path
       style="display:inline;fill:#eabd00;fill-opacity:1;stroke:none;stroke-width:1.38677835px;stroke-linecap:butt;stroke-linejoin:miter;stroke-opacity:1"
       d="m -138.83528,-71.129972 c 0,0 -14.9801,-0.14271 -25.1866,5.55739 -24.9954,13.95952 -69.1542,66.13533996 -69.1542,66.13533996 L -253.57998,166.66592 c 0,0 11.6141,12.0657 19.2944,14.2454 3.042,0.86336 9.4503,-0.79141 9.4503,-0.79141 0,0 8.7758,7.58252 14.1754,9.10124 5.5629,1.56467 17.3256,-0.39569 17.3256,-0.39569 0,0 -0.9772,4.95294 0.3938,6.72701 3.9718,5.1396 18.5068,5.9356 18.5068,5.9356 h 92.928001 c 0,0 14.2534,-0.53814 18.900605,-5.14419 2.041,-2.02291 2.3626,-8.30983 2.3626,-8.30983 0,0 14.5577,2.70717 21.2632,0.39569 4.1493,-1.43035 10.2378,-8.30983 10.2378,-8.30983 0,0 9.532,0.98154 13.7817,-0.79141 6.1811004,-2.57873 14.96290041,-13.45399 14.96290041,-13.45399 L -25.657874,-1.272682 c 0,0 -43.205605,-49.02391 -64.073505,-62.35762 -11.871101,-7.58511 -22.796201,-6.94003 -22.796201,-6.94003 z"
       id="path1139"
       inkscape:connector-curvature="0"
       sodipodi:nodetypes="csccscscsccscscsccscc" />
    <path
       style="display:inline;fill:none;stroke:none;stroke-width:1.48804021px;stroke-linecap:butt;stroke-linejoin:miter;stroke-opacity:1"
       d="m -233.08858,198.09738 17.7893,-5.92977 5.5063,-166.034142"
       id="path1142"
       inkscape:connector-curvature="0" />
    <path
       inkscape:connector-curvature="0"
       id="path1166"
       d="M -56.041974,206.56851 -72.984279,-20.034162"
       style="display:inline;fill:none;stroke:none;stroke-width:1.48804021px;stroke-linecap:butt;stroke-linejoin:miter;stroke-opacity:1" />
    <path
       inkscape:connector-curvature="0"
       id="path1148"
       d="m -22.157474,198.09738 -17.7894,-5.92977 -5.5063,-166.034112"
       style="display:inline;fill:none;stroke:none;stroke-width:1.48804021px;stroke-linecap:butt;stroke-linejoin:miter;stroke-opacity:1" />
    <path
       style="display:inline;fill:none;stroke:none;stroke-width:1.48804021px;stroke-linecap:butt;stroke-linejoin:miter;stroke-opacity:1"
       d="m -199.20408,207.41563 16.9422,-226.602662"
       id="path1145"
       inkscape:connector-curvature="0" />
    <path
       inkscape:connector-curvature="0"
       id="path1817"
       d="m -233.08858,198.09738 17.7893,-5.92977 5.5063,-166.034142"
       style="display:inline;fill:none;stroke:none;stroke-width:1.48804021px;stroke-linecap:butt;stroke-linejoin:miter;stroke-opacity:1" />
    <path
       style="display:inline;fill:none;stroke:none;stroke-width:1.48804021px;stroke-linecap:butt;stroke-linejoin:miter;stroke-opacity:1"
       d="M -56.041974,206.56851 -72.984279,-20.034162"
       id="path1821"
       inkscape:connector-curvature="0" />
    <path
       style="display:inline;fill:none;stroke:none;stroke-width:1.48804021px;stroke-linecap:butt;stroke-linejoin:miter;stroke-opacity:1"
       d="m -22.157474,198.09738 -17.7894,-5.92977 -5.5063,-166.034112"
       id="path1825"
       inkscape:connector-curvature="0" />
    <path
       inkscape:connector-curvature="0"
       id="path1829"
       d="m -199.20408,207.41563 16.9422,-226.602662"
       style="display:inline;fill:none;stroke:none;stroke-width:1.48804021px;stroke-linecap:butt;stroke-linejoin:miter;stroke-opacity:1" />
    <path
       style="display:inline;fill:#fab99c;fill-opacity:1;stroke:#000000;stroke-width:0;stroke-linecap:butt;stroke-linejoin:miter;stroke-miterlimit:4;stroke-dasharray:none;stroke-opacity:1"
       d="m -93.203279,76.998178 c 0,0 2.2147,-11.46726 6.5564,-12.49964 1.7543,-0.41711 1.1499,3.51073 4.3329,3.39053 2.9578,-1.69201 4.4478,-6.06455 6.3978,-9.59711 l 15.211405,11.02016 c -4.5589,8.0139 -10.349905,17.10994 -15.910405,21.90834 -3.9846,2.181 -11.0009,1.03694 -14.2321,0.12198 z"
       id="path2173"
       inkscape:connector-curvature="0"
       sodipodi:nodetypes="cacccccc" />
    <path
       style="display:inline;fill:#fab99c;fill-opacity:1;stroke:none;stroke-width:1.48804021px;stroke-linecap:butt;stroke-linejoin:miter;stroke-opacity:1"
       d="m -157.31088,-67.532482 c 0,0 10.7411,-1.17032 16.3458,-2.26954 2.3927,-0.4693 3.3884,-5.29448 3.3884,-5.29448 l 22.2368,-0.21186 c 0,0 1.4451,5.16076 3.6002,6.14155 6.5961,3.00198 18.231001,4.10292 18.231001,4.10292 l -34.538001,22.58113 z"
       id="path1199"
       inkscape:connector-curvature="0"
       sodipodi:nodetypes="csccsccc" />
    <path
       style="display:inline;fill:#fab99c;fill-opacity:1;stroke:none;stroke-width:1.48804021px;stroke-linecap:butt;stroke-linejoin:miter;stroke-opacity:1"
       d="m -154.94248,-148.15997 c 0,0 -3.991,27.15874 -2.5413,40.6614 0.5248,4.88812 1.5965,9.913939 4.0237,14.189148 3.4025,5.99286 14.1892,15.03624 14.1892,15.03624 l 21.6014,0.21186 c 0,0 15.1439,-8.46401 19.695401,-15.45981 2.8197,-4.334099 3.271,-9.893968 3.812,-15.036238 1.3378,-12.71666 -1.4825,-38.33186 -1.4825,-38.33186 z"
       id="path1239"
       inkscape:connector-curvature="0"
       sodipodi:nodetypes="cssccsscc" />
    <path
       style="display:inline;fill:#7e254e;fill-opacity:1;stroke:none;stroke-width:1.48804021px;stroke-linecap:butt;stroke-linejoin:miter;stroke-opacity:1"
       d="m -168.13548,80.112028 -2.3534,-105.17577 -45.35172,46.850484 c 0,0 -8.4064,5.718732 -12.76963,5.804286 -4.12871,0.08096 -10.69288,-2.960156 -12.09514,-6.554088 -6.52068,-16.7122626 -17.93305,-62.137455 -17.93305,-62.137455 0,0 14.98855,-2.098852 18.75687,-2.337961 l 12.40615,45.7994026 66.25122,-68.9297386 c 0,0 1.8783,-1.11857 3.9133,-0.96367 1.5268,0.11629 3.0806,1.60852 3.0806,1.60852 l 18.7315,16.266 c 3.498,3.0376 13.4927,2.83535 17.2858,0.17534 l 21.308401,-14.94223 c 0,0 1.5351,-1.05828 3.3959,-0.63904 1.5776,0.35539 2.4818,1.16537 2.4818,1.16537 l 65.369005,62.62573 c 0,0 3.0674,4.08399 3.4602,6.50982 0.4587,2.83226 -1.4345,8.48708 -1.4345,8.48708 l -35.4854,57.40284 -19.767005,-14.37599 26.955005,-45.52395 -33.544005,-36.53897 -5.39099,105.42389 z"
       id="path941"
       inkscape:connector-curvature="0"
       sodipodi:nodetypes="cccssccccscsscsccaccccccc" />
    <path
       style="display:inline;fill:#eabd00;fill-opacity:1;stroke:none;stroke-width:1.48804021px;stroke-linecap:butt;stroke-linejoin:miter;stroke-opacity:1"
       d="m -168.13548,96.284998 38.935,13.177982 38.335901,-13.177982 v -16.17297 h -77.270901 z"
       id="path939"
       inkscape:connector-curvature="0" />
    <path
       sodipodi:nodetypes="ccccc"
       inkscape:connector-curvature="0"
       id="path1048"
       d="m -90.864579,96.284998 6.589,122.195862 -28.152901,2.99499 -17.371,-112.01284 z"
       style="display:inline;fill:#7e254e;fill-opacity:1;stroke:none;stroke-width:1.48804021px;stroke-linecap:butt;stroke-linejoin:miter;stroke-opacity:1" />
    <path
       style="display:inline;fill:#7e254e;fill-opacity:1;stroke:none;stroke-width:1.48804021px;stroke-linecap:butt;stroke-linejoin:miter;stroke-opacity:1"
       d="m -168.13548,96.284998 -6.589,122.195832 28.153,2.99502 17.371,-112.01287 z"
       id="path937"
       inkscape:connector-curvature="0"
       sodipodi:nodetypes="ccccc" />
    <path
       sodipodi:nodetypes="ccsccccc"
       inkscape:connector-curvature="0"
       id="path1075"
       d="m -79.816179,214.25764 -0.4661,61.14047 c 0,0 21.810705,5.08109 29.492605,11.55659 3.2943,2.77694 5.2493,10.92718 5.2493,10.92718 l -53.310905,0.27821 -18.436101,-81.33102 18.363401,-4.42864 z"
       style="display:inline;fill:#eabd00;fill-opacity:1;stroke:none;stroke-width:1.48804021px;stroke-linecap:butt;stroke-linejoin:miter;stroke-opacity:1" />
    <path
       style="display:inline;fill:#eabd00;fill-opacity:1;stroke:none;stroke-width:1.48804021px;stroke-linecap:butt;stroke-linejoin:miter;stroke-opacity:1"
       d="m -179.38358,214.24528 0.4661,61.14047 c 0,0 -23.8968,4.95642 -32.4563,12.83606 -2.7904,2.56881 -5.0441,10.19938 -5.0441,10.19938 l 56.0694,-0.27343 18.4361,-81.33105 -18.3634,-4.42863 z"
       id="path935"
       inkscape:connector-curvature="0"
       sodipodi:nodetypes="ccsccccc" />
    <path
       style="display:inline;opacity:1;fill:#ffffff;stroke:none;stroke-width:1.48804021px;stroke-linecap:butt;stroke-linejoin:miter;stroke-opacity:1"
       d="m -149.43628,-105.80436 23.0839,-7.62398 22.0249,6.77689 v 24.354498 c 0,0 -5.1139,4.10691 -8.0475,5.50623 -4.4551,2.12503 -9.2533,4.23283 -14.1892,4.23555 -5.4498,0.003 -10.8544,-2.11047 -15.6716,-4.65911 -3.06,-1.619 -8.0475,-6.56511 -8.0475,-6.56511 z"
       id="path1205"
       inkscape:connector-curvature="0"
       sodipodi:nodetypes="ccccssscc" />
    <path
       style="display:inline;fill:#ffd700;stroke:#7e254e;stroke-width:1.48804021px;stroke-linecap:butt;stroke-linejoin:miter;stroke-opacity:1"
       d="m -143.50648,-86.320732 h 33.0375"
       id="path1223"
       inkscape:connector-curvature="0" />
    <path
       style="display:inline;fill:none;stroke:#7e254e;stroke-width:1.48804021px;stroke-linecap:butt;stroke-linejoin:miter;stroke-opacity:1"
       d="m -143.71818,-93.309422 17.5776,-1.694219 15.8833,2.117779"
       id="path1220"
       inkscape:connector-curvature="0" />
    <path
       style="display:inline;opacity:1;fill:none;stroke:#7e254e;stroke-width:1.48804021px;stroke-linecap:butt;stroke-linejoin:miter;stroke-opacity:1"
       d="m -143.71818,-100.50988 17.3658,-4.23555 16.1288,4.3217"
       id="path1217"
       inkscape:connector-curvature="0" />
    <path
       inkscape:connector-curvature="0"
       id="path1210"
       d="m -105.28048,-105.53961 11.118401,-16.35986"
       style="display:inline;fill:none;stroke:#ffffff;stroke-width:1.48804021px;stroke-linecap:butt;stroke-linejoin:miter;stroke-opacity:1"
       sodipodi:nodetypes="cc" />
    <path
       style="display:inline;fill:none;stroke:#ffffff;stroke-width:1.48804021px;stroke-linecap:butt;stroke-linejoin:miter;stroke-opacity:1"
       d="m -148.37738,-104.79839 -11.2242,-16.25396"
       id="path1208"
       inkscape:connector-curvature="0"
       sodipodi:nodetypes="cc" />
    <path
       style="display:inline;fill:#604557;fill-opacity:1;stroke:none;stroke-width:1.48804021px;stroke-linecap:butt;stroke-linejoin:miter;stroke-opacity:1"
       d="m -160.66048,-118.72282 9.7418,-12.49491 c 0,0 13.7508,-7.87487 17.7894,-3.38846 2.6147,2.90469 -1.2707,12.49494 -1.2707,12.49494 0,0 6.1049,-0.75852 12.4081,-5.41204 4.3713,-3.22724 6.2804,-12.34653 10.2522,-11.74201 2.2786,0.34682 4.4473,5.29448 4.4473,5.29448 0,0 2.6973,-2.80909 4.2356,-2.32958 3.164701,0.98641 3.573201,5.69716 4.447301,8.89469 1.0637,3.89091 0.8471,12.07135 0.8471,12.07135 0,0 6.0486,-6.95306 7.4123,-11.22425 1.8691,-5.85407 2.2846,-12.50493 0.6353,-18.4247 -1.5607,-5.60189 -4.5298,-11.64365 -9.53,-14.61269 -2.313701,-1.37386 -5.776501,-1.08034 -8.259301,-2.11777 -5.0798,-2.12252 -4.8062,-6.73027 -9.9536,-8.68292 -5.3467,-2.02821 -14.0082,-2.49632 -19.4836,-0.84712 -7.9304,2.38861 -15.4393,7.45409 -20.5425,13.97737 -4.6378,5.92842 -7.4887,13.65883 -7.8358,21.17782 -0.2764,5.98695 4.6591,17.3658 4.6591,17.3658 z"
       id="path1202"
       inkscape:connector-curvature="0"
       sodipodi:nodetypes="ccscsscsscssssssssc" />
    <path
       style="display:inline;fill:#ffffff;fill-opacity:1;stroke-width:0.15530403"
       d="m -132.10528,35.367058 c -0.8455,-0.34068 -0.8692,-1.2633 -0.063,-2.4467 0.6238,-0.91542 1.1414,-2.24448 1.3331,-3.42285 0.06,-0.36739 0.2548,-0.80418 0.4335,-0.97066 0.4151,-0.38671 1.2123,-0.38922 1.6857,-0.005 0.3109,0.25226 0.3623,0.4233 0.3379,1.12595 -0.082,2.3587 -2.0292,5.92788 -3.2011,5.86611 -0.1029,-0.005 -0.3396,-0.0712 -0.5262,-0.14659 z m 6.128,-0.11551 c -0.4324,-0.49245 -0.4396,-0.89017 -0.037,-2.06663 0.6276,-1.83534 0.7267,-2.41256 0.8309,-4.8401 0.076,-1.76891 0.1531,-2.34131 0.3409,-2.52903 0.1334,-0.13338 0.9718,-0.4074 1.8631,-0.60877 2.9652,-0.67002 5.07181,-1.75826 6.9045,-3.56675 1.345,-1.32732 2.1365,-2.52784 2.7194,-4.12496 0.8316,-2.27874 0.8839,-4.49147 0.1559,-6.59316 -0.3963,-1.14393 -0.3986,-1.49989 -0.013,-1.91439 0.4282,-0.45966 0.8823,-0.56769 1.4309,-0.34045 1.0772,0.44617 1.8236,3.79749 1.4996,6.73242 -0.3201,2.89904 -1.6188,5.57257 -3.7795,7.78006 -2.2566,2.30563 -4.5761,3.5501 -8.4015,4.50771 -0.1038,0.0259 -0.2071,0.72969 -0.2645,1.80379 -0.1381,2.58159 -1.0454,5.66661 -1.7454,5.93524 -0.4875,0.18699 -1.2661,0.0966 -1.5045,-0.17508 z m 6.455,-1.51059 c -0.18,-0.12613 -0.3689,-0.39476 -0.4196,-0.59693 -0.14089,-0.56153 0.2958,-2.59016 0.62491,-2.90253 0.1572,-0.14918 0.8655,-0.5181 1.5738,-0.81957 2.1276,-0.90557 3.81169,-2.05427 5.68409,-3.87689 1.4838,-1.44439 1.7848,-1.66951 2.2319,-1.66951 0.6205,0 1.2792,0.58414 1.2792,1.13442 0,0.50585 -0.6592,1.37115 -2.0411,2.67915 -1.5516,1.46863 -2.9523,2.44631 -5.0123,3.49864 -1.6737,0.85499 -1.7187,0.89185 -1.8751,1.53374 -0.2654,1.09042 -1.2465,1.5793 -2.0458,1.01948 z m -22.0401,-1.99377 c -0.411,-0.3535 -0.4198,-0.40095 -0.5346,-2.87347 -0.089,-1.91719 -0.1772,-2.60614 -0.3709,-2.90194 -0.3055,-0.46627 -0.2411,-0.46409 -2.3561,-0.0798 -2.3678,0.4304 -2.9135,0.41455 -3.3153,-0.0963 -0.4169,-0.53004 -0.40779,-1.02915 0.027,-1.52214 0.2849,-0.3225 0.6652,-0.45809 2.0578,-0.73363 2.3005,-0.45514 4.1638,-0.47197 4.892,-0.0443 0.6433,0.37787 1.1762,1.25949 1.3131,2.17222 0.2261,1.50846 0.3624,5.43278 0.1991,5.73961 -0.4084,0.76797 -1.2424,0.91596 -1.9127,0.33944 z m 5.215,-0.10645 c -0.2968,-0.29675 -0.3107,-0.51768 -0.3107,-4.95703 0,-2.55551 0.043,-4.75953 0.097,-4.89781 0.1453,-0.37857 0.929,-0.72723 1.3801,-0.61402 0.2157,0.0541 0.5307,0.27469 0.7002,0.49015 0.2892,0.36774 0.3073,0.62609 0.2951,4.2146 -0.016,4.45047 -0.1158,5.55769 -0.5318,5.86188 -0.4306,0.31484 -1.2671,0.26465 -1.6294,-0.0979 z m 6.5227,-5.54257 c -0.5821,-0.22222 -0.7765,-0.56365 -0.7765,-1.36433 0,-1.88082 0.7926,-3.19675 2.3763,-3.94501 1.0477,-0.49505 1.9643,-0.71455 4.2737,-1.02345 1.9361,-0.25899 3.0841,-0.70511 4.0506,-1.57415 1.134,-1.01948 1.6471,-2.15468 1.6425,-3.63393 -0.01,-1.38599 -0.3456,-2.16134 -1.3177,-2.99336 -1.2506,-1.0705 -2.6004,-1.16682 -6.1446,-0.43848 -1.2874,0.26459 -2.58029,0.4807 -2.8731,0.4802 -0.88739,-10e-4 -1.6558,-0.29352 -2.07129,-0.78726 -0.6696,-0.79577 -0.7687,-1.4986 -0.58951,-4.18161 0.2341,-3.50588 -0.041,-4.63482 -1.4278,-5.85528004 -2.039,-1.79483996 -5.3039,-1.01104 -6.523,1.56601004 -0.4517,0.95479 -0.7717,2.71067 -0.6389,3.50641 0.051,0.30245 0.023,1.44977 -0.061,2.54957 -0.1251,1.64009 -0.2254,2.14829 -0.557,2.82626 -0.6465,1.32131 -1.4669,1.70108 -5.0232,2.32515 -2.6269,0.46099 -3.7592,0.91428 -4.9699,1.9895 -0.6642,0.58994 -0.9198,0.72125 -1.404,0.72125 -0.7504,0 -1.1682,-0.42771 -1.1682,-1.19599 0,-0.47906 0.1243,-0.67512 0.8677,-1.3669 1.491,-1.38782 3.017,-2.0704 5.5619,-2.4878 2.8126,-0.46132 3.6658,-0.9127 4.0313,-2.13269 0.1075,-0.35871 0.215,-1.75161 0.2422,-3.13719 0.052,-2.64998 0.2147,-3.48793 0.9645,-4.96856004 0.5739,-1.1332 2.0059,-2.48748996 3.2568,-3.07998996 1,-0.47363 1.1516,-0.50028 2.8423,-0.49927 1.5175,7e-4 1.8992,0.0531 2.5391,0.34752 1.8447,0.8486 3.1154,2.26607996 3.7103,4.13905 0.332,1.04546 0.3965,2.87961 0.1984,5.6476 -0.135,1.88564 -0.3481,1.77774 2.3533,1.19151 4.6346,-1.00579 6.8095,-0.71799 8.7999,1.16439 2.6771,2.53188 2.6085,6.91136 -0.1535,9.80705 -1.4322,1.50145 -2.9834,2.18291 -5.8082,2.55154 -2.392,0.31217 -3.792,0.7385 -4.1327,1.25851 -0.1414,0.216 -0.3138,0.75062 -0.383,1.18822 -0.069,0.43762 -0.2502,0.91759 -0.4022,1.06662 -0.3128,0.3067 -0.9383,0.4715 -1.2859,0.33889 z m 21.5913,-3.92701 c -0.5265,-0.52646 -0.5176,-0.93629 0.052,-2.41412 0.8025,-2.08113 1.0806,-3.5746 1.0838,-5.82094 0.01,-4.15052 -1.575,-7.83364 -4.5454,-10.58826 -2.0072,-1.86132 -4.1543,-2.95798004 -7.0904,-3.62140004 -0.9175,-0.20719 -1.7224,-0.43205 -1.78869,-0.49942 -0.067,-0.0673 -0.3684,-0.70238996 -0.6712,-1.41118996 -1.3571,-3.1769603 -3.69501,-5.8357003 -6.4955,-7.3866603 -2.02661,-1.1223797 -5.2365,-1.9607997 -7.5127,-1.9623097 -2.0966,-10e-4 -5.11261,0.80115 -6.9878,1.8594597 -1.42461,0.80402 -2.3895,0.49509 -2.3895,-0.7650497 0,-0.75385 0.41549,-1.11106 2.3427,-2.01423 3.9238,-1.83876 8.5596,-2.0365 12.9772,-0.5536 3.4577,1.16074 6.6876,3.6571197 8.7168,6.7372697 0.5155,0.78247 1.1334,1.873 1.3732,2.42339 l 0.4359,1.0007303 0.8348,0.17327 c 2.8434,0.5903 5.8411,2.16371996 8.05819,4.22954 3.75811,3.50182 5.7705,8.99386 5.189,14.16141 -0.3111,2.76516 -1.2232,5.71861 -1.9791,6.40932 -0.4735,0.4326 -1.1946,0.45185 -1.6037,0.0427 z m -41.089,-1.7829 c -0.4595,-0.45948 -0.4983,-1.14815 -0.093,-1.64884 0.2574,-0.31786 0.6952,-0.41923 4.0767,-0.94406 4.44,-0.68911 4.9883,-0.71817 5.4191,-0.28728 0.4113,0.41124 0.421,1.40503 0.018,1.77031 -0.2121,0.19192 -1.3846,0.43452 -4.2321,0.87574 -2.1662,0.33569 -4.1341,0.61146 -4.3728,0.61284 -0.2564,0.001 -0.5903,-0.15359 -0.8154,-0.37871 z m 13.7978,-2.40798 c -1.0547,-0.64311 -1.0507,-0.61545 -1.1012,-7.76938 -0.033,-4.7184 0,-6.53434 0.1373,-6.7843 0.2805,-0.52402 0.9687,-0.75329 1.5448,-0.51462 0.2595,0.10748 0.5391,0.32102 0.62121,0.47453 0.088,0.16524 0.1494,2.79041 0.1494,6.43299 0,3.38463 0.055,6.11944 0.1238,6.07735 0.1946,-0.12017 10.98599,-1.80546 11.56129,-1.80546 0.8208,0 1.2052,0.36666 1.2052,1.14953 0,0.45808 -0.093,0.74971 -0.29639,0.93419 -0.22091,0.19995 -1.77021,0.50152 -6.0957,1.18628 -3.1896,0.50491 -6.14881,0.91894 -6.5758,0.92005 -0.4998,10e-4 -0.9537,-0.10593 -1.2738,-0.30116 z m -17.3905,-8.42202 c -0.4258,-0.2059 -0.736,-0.93353 -0.61069,-1.43274 0.053,-0.20953 0.28769,-0.51426 0.52239,-0.67717 0.632,-0.43876 2.624,-1.21761 3.6881,-1.44206 1.4405,-0.30385 1.4162,-0.27624 1.5211,-1.73073 0.1813,-2.51469 1.3299,-5.50701 2.9304,-7.63419 1.4819,-1.9697103 3.9212,-3.6603803 6.4198,-4.4496403 1.6698,-0.52747 4.5645,-0.60734 6.2955,-0.17378 4.412,1.10523 7.648,4.4473603 8.7084,8.9939603 l 0.3338,1.4316 h 0.7452 c 1.0171,0 2.9944,0.28064 4.029,0.57188 1.1086,0.31207 3.3546,1.46646 3.999,2.05539 0.6737,0.61571 0.717,1.53175 0.096,2.0206 -0.5937,0.46702 -0.9554,0.40416 -2.1357,-0.37109 -2.0166,-1.32447 -4.2375,-1.87932 -6.8511,-1.71164 -1.4914,0.0956 -1.5663,0.0852 -1.8805,-0.26208 -0.2356,-0.2606 -0.3776,-0.73695 -0.5079,-1.70357 -0.3697,-2.74314004 -1.3248,-4.70389 -3.1132,-6.39093 -4.6253,-4.3632903 -12.3164,-2.6622703 -15.3043,3.38484996 -0.7368,1.49119004 -1.2744,3.67305004 -1.4123,5.73164004 -0.1334,1.99167 -0.2703,2.19289 -1.602,2.3545 -1.1726,0.14219 -3.2785,0.75842 -4.21579,1.23339 -0.82411,0.4176 -1.1309,0.455 -1.65471,0.20175 z m 49.2528,-5.05688 c -0.2155,-0.32033 -0.7513,-1.1415 -1.191,-1.82483 -0.457,-0.71027 -1.5026,-1.94723004 -2.4412,-2.88787004 -2.3523,-2.35747996 -4.5219,-3.73427026 -7.5529,-4.79268026 -0.7645,-0.26695 -1.4685,-0.53498 -1.5645,-0.59561 -0.096,-0.0606 -0.5264,-0.70431 -0.9564,-1.43033 -3.4403,-5.8082697 -9.6362,-9.6109697 -16.339,-10.0280497 -1.7987,-0.11189 -2.2464,-0.26762 -2.495,-0.86769 -0.1603,-0.38696 -0.1502,-0.55119 0.06,-0.9921 0.321,-0.67305 0.6821,-0.76176 2.5911,-0.63667 4.2227,0.27672 8.5851,1.81895 11.9992,4.24201 1.9415,1.37785 4.2215,3.7496 5.6121,5.8377997 1.1831,1.77642 1.1997,1.79299 2.1567,2.14354 1.4748,0.54022 3.6179,1.63817 5.0618,2.59327 1.4177,0.93774 3.9657,3.2927303 4.9592,4.58362026 1.2088,1.57046004 2.3583,3.55431004 2.3583,4.06982004 0,0.67414 -0.5467,1.16814 -1.2927,1.16814 -0.49,0 -0.6312,-0.0852 -0.9655,-0.58237 z m -48.6752,-2.95949 c -0.2597,-0.25969 -0.4722,-0.61172004 -0.4722,-0.78232004 0,-0.48665 0.9047,-2.92736996 1.5917,-4.29394996 0.7923,-1.5762703 1.883,-3.1941403 2.9136,-4.3217003 0.7115,-0.77862 0.876,-0.88221 1.4006,-0.88221 0.4571,0 0.6687,0.0945 0.9162,0.40921 0.5164,0.65637 0.4129,1.12896 -0.4726,2.16002 -1.5775,1.83661 -2.7162,3.8360003 -3.5582,6.24732026 -0.5438,1.55713004 -0.6465,1.69567004 -1.3633,1.83902004 -0.4016,0.0803 -0.5638,0.0155 -0.9558,-0.37539 z m 49.1468,-5.7386503 c -2.7359,-2.62694 -5.7333,-4.58865 -8.871,-5.8058197 -0.494,-0.19165 -0.7932,-0.4752 -1.3073,-1.23926 -0.8703,-1.2933 -2.3708,-3.08707 -3.5529,-4.24732 -0.8192,-0.80415 -0.9443,-1.00329 -0.9443,-1.50294 0,-0.6961 0.5587,-1.21959 1.3022,-1.22003 0.4075,-10e-5 0.7169,0.23854 1.9625,1.51422 0.8133,0.83298 1.9597,2.15991 2.5476,2.94874 l 1.0688,1.43421 1.801,0.86558 c 2.3119,1.11122 4.8052,2.7807597 6.783,4.5420297 1.7439,1.55293 2.0795,2.08983 1.7711,2.8341 -0.2261,0.5457003 -0.5738,0.7705903 -1.1915,0.7705903 -0.3219,0 -0.6848,-0.23698 -1.3692,-0.8941003 z m 0.2336,-7.1547897 c -1.4646,-1.07198 -2.8384,-1.90802 -4.5908,-2.79368 -1.4121,-0.71369 -1.6094,-0.87015 -2.31529,-1.83521 -1.00941,-1.38019 -3.5721,-4.03289 -5.04701,-5.22419 -6.83579,-5.52154 -16.0402,-8.09728 -24.5786,-6.87795 -1.838,0.26246 -2.0039,0.26435 -2.3659,0.0272 -0.699,-0.458 -0.7161,-1.58619 -0.031,-2.03518 0.98091,-0.6427 7.5729,-0.98224 10.8185,-0.55725 9.1215,1.19443 17.0601,5.54404 22.6358,12.40228 1.1039,1.35773 1.2635,1.4885 2.7407,2.24611 1.6343,0.83811 4.3647,2.59205 5.1019,3.27733 0.5199,0.48328 0.5598,1.133 0.1052,1.71099 -0.5179,0.65832 -1.246,0.55814 -2.4736,-0.34039 z m -48.0456,0.11706 c -0.3214,-0.25278 -0.4092,-0.45648 -0.4092,-0.94919 0,-0.56298 0.089,-0.70915 0.8684,-1.42527 1.2845,-1.18019 3.3615,-2.62375 5.0407,-3.5033 1.656,-0.86735 4.4079,-1.84355 5.5927,-1.98388 0.6717,-0.0795 0.8296,-0.043 1.1606,0.26786 0.4597,0.43187 0.5104,1.20197 0.1113,1.69279 -0.1761,0.21652 -0.7007,0.44399 -1.4898,0.64575 -3.21749,0.82275 -5.62599,2.14748 -9.0066,4.95364 -0.8445,0.70105 -1.2725,0.77012 -1.8681,0.3016 z m 29.1762,-7.93452 c -2.2111,-1.30375 -5.2459,-2.43608 -8.3275,-3.10714 -1.4007,-0.30499 -2.0598,-0.35101 -5.0286,-0.35101 -2.9481,0 -3.6329,0.0471 -4.9927,0.34368 -1.8846,0.411 -4.3082,1.23261 -6.0943,2.06598 -0.7165,0.33434 -1.4503,0.60564 -1.6307,0.60294 -0.7797,-0.013 -1.3295,-0.97268 -1.0048,-1.75645 0.3613,-0.87227 4.7916,-2.66669 8.376,-3.39255 1.5622,-0.31636 2.2112,-0.35874 5.4241,-0.35418 3.3855,0.005 3.7958,0.0363 5.6686,0.43478 1.1104,0.2362 2.7528,0.67362 3.6496,0.97183 1.804,0.59983 5.0089,2.11775 6.0241,2.85316 0.5802,0.42033 0.654,0.54374 0.654,1.09402 0,1.37524 -1.0169,1.59785 -2.7178,0.59494 z m 17.2968,0.25796 c -0.4662,-0.24294 -1.1549,-0.88095 -1.9616,-1.8176 -3.1359,-3.64051 -6.4742,-6.37351 -10.5802,-8.66178 -0.9525,-0.53076 -1.8004,-1.09345 -1.8844,-1.25043 -0.4164,-0.77799 0.1795,-1.85888 1.0246,-1.85888 0.8285,0 5.1798,2.61784 7.7526,4.66419 1.596,1.26941 4.1733,3.77159 5.4903,5.3303 0.5669,0.6709 1.2908,1.35252 1.6088,1.5147 0.9624,0.49103 1.2166,1.49448 0.5396,2.1305 -0.4643,0.43617 -1.0849,0.42027 -1.9897,-0.051 z m -19.1946,-13.27751 c -0.7021,-0.2432 -1.9447,-0.59634 -2.7612,-0.78504 -1.5678,-0.36226 -2.0967,-0.72905 -2.0967,-1.45382 0,-0.45013 0.4143,-1.01117 0.8766,-1.18692 0.7213,-0.27422 5.8665,1.14657 6.5205,1.80061 0.5997,0.59965 0.4746,1.48119 -0.2643,1.86332 -0.5823,0.30113 -0.7757,0.28088 -2.2749,-0.23802 z"
       id="path1670"
       inkscape:connector-curvature="0" />
    <path
       style="display:inline;fill:#ffffff;fill-opacity:1;stroke-width:0.15530403"
       d="m -453.58558,52.936592 c -0.8456,-0.34065 -0.8693,-1.26327 -0.063,-2.4467 0.6238,-0.91541 1.1413,-2.24445 1.333,-3.42282 0.06,-0.36739 0.2548,-0.80418 0.4335,-0.97066 0.4151,-0.38671 1.2123,-0.38925 1.6857,-0.005 0.3109,0.25226 0.3623,0.4233 0.338,1.12598 -0.082,2.35869 -2.0293,5.92785 -3.2012,5.86611 -0.1028,-0.005 -0.3395,-0.0715 -0.5261,-0.1466 z m 6.1279,-0.11551 c -0.4323,-0.49245 -0.4395,-0.89014 -0.037,-2.0666 0.6276,-1.83534 0.7268,-2.41259 0.831,-4.8401 0.076,-1.76891 0.1531,-2.34134 0.3408,-2.52903 0.1334,-0.13338 0.9719,-0.4074 1.8632,-0.60879 2.9652,-0.67002 5.0718,-1.75824 6.9044,-3.56673 1.3451,-1.32732 2.1365,-2.52787 2.7194,-4.12496 0.8316,-2.27877 0.8839,-4.49147 0.1559,-6.59316 -0.3962,-1.14393 -0.3986,-1.49989 -0.013,-1.91441 0.4283,-0.45964 0.8824,-0.56767 1.431,-0.34043 1.0771,0.44615 1.8235,3.79747 1.4995,6.73242 -0.32,2.89904 -1.6188,5.57257 -3.7794,7.78003 -2.2567,2.30563 -4.5761,3.55013 -8.4015,4.50771 -0.1039,0.0262 -0.2072,0.72972 -0.2646,1.80382 -0.138,2.58156 -1.0453,5.66658 -1.7454,5.93521 -0.4875,0.18699 -1.2661,0.0966 -1.5045,-0.17508 z m 6.455,-1.51059 c -0.18,-0.12613 -0.3689,-0.39473 -0.4196,-0.5969 -0.1409,-0.56153 0.2958,-2.59019 0.6249,-2.90253 0.1572,-0.14918 0.8655,-0.5181 1.5739,-0.81959 2.1275,-0.90555 3.8117,-2.05425 5.6841,-3.87687 1.4837,-1.44442 1.7847,-1.66954 2.2318,-1.66954 0.6205,0 1.2792,0.58417 1.2792,1.13443 0,0.50587 -0.6592,1.37114 -2.0411,2.67914 -1.5516,1.46866 -2.9522,2.44634 -5.0122,3.49867 -1.6738,0.85499 -1.7188,0.89182 -1.8751,1.53371 -0.2655,1.09045 -1.2466,1.57933 -2.0459,1.01948 z m -22.0401,-1.99374 c -0.411,-0.3535 -0.4198,-0.40098 -0.5346,-2.87347 -0.089,-1.91719 -0.1771,-2.60614 -0.3708,-2.90196 -0.3055,-0.46625 -0.2412,-0.46407 -2.3562,-0.0795 -2.3678,0.43038 -2.9135,0.41455 -3.3153,-0.0963 -0.4169,-0.53003 -0.4078,-1.02914 0.028,-1.52217 0.2849,-0.3225 0.6652,-0.45808 2.0578,-0.7336 2.3005,-0.45513 4.1638,-0.47197 4.892,-0.0443 0.6433,0.3779 1.1762,1.25949 1.3131,2.17222 0.2261,1.50846 0.3624,5.43278 0.1991,5.73964 -0.4084,0.76795 -1.2424,0.91596 -1.9127,0.33944 z m 5.215,-0.10645 c -0.2968,-0.29675 -0.3106,-0.51768 -0.3106,-4.95703 0,-2.55553 0.043,-4.75955 0.097,-4.89783 0.1453,-0.37855 0.9289,-0.72723 1.38,-0.614 0.2158,0.0541 0.5307,0.27469 0.7002,0.49015 0.2892,0.36772 0.3073,0.62609 0.2951,4.21457 -0.016,4.45049 -0.1158,5.5577 -0.5318,5.86191 -0.4305,0.31481 -1.267,0.26462 -1.6294,-0.0979 z m 6.5228,-5.54259 c -0.5822,-0.22222 -0.7766,-0.56363 -0.7766,-1.36434 0,-1.88082 0.7927,-3.19675 2.3763,-3.94499 1.0477,-0.49504 1.9643,-0.71454 4.2737,-1.02347 1.9361,-0.25899 3.0841,-0.70508 4.0507,-1.57412 1.134,-1.0195 1.647,-2.15468 1.6424,-3.63393 -0.01,-1.38599 -0.3456,-2.16137 -1.3176,-2.99339 -1.2507,-1.0705 -2.6005,-1.16682 -6.1447,-0.43845 -1.2873,0.26459 -2.5803,0.48067 -2.873,0.4802 -0.8874,-0.001 -1.6559,-0.29354 -2.0714,-0.78726 -0.6695,-0.79577 -0.7686,-1.4986 -0.5895,-4.18161 0.2342,-3.50591 -0.041,-4.63482 -1.4278,-5.85531 -2.039,-1.79483 -5.3038,-1.01101 -6.523,1.56602 -0.4517,0.95478 -0.7716,2.71066 -0.6389,3.5064 0.051,0.30246 0.023,1.44978 -0.061,2.5496 -0.1251,1.64009 -0.2253,2.14829 -0.557,2.82626 -0.6464,1.32131 -1.4668,1.70108 -5.0232,2.32513 -2.6268,0.46098 -3.7592,0.91427 -4.9699,1.98952 -0.6642,0.58994 -0.9198,0.72122 -1.404,0.72122 -0.7504,0 -1.1681,-0.42768 -1.1681,-1.19596 0,-0.47909 0.1243,-0.67512 0.8676,-1.3669 1.4911,-1.38785 3.017,-2.0704 5.562,-2.48783 2.8125,-0.46132 3.6658,-0.91267 4.0313,-2.13267 0.1075,-0.3587 0.215,-1.75161 0.2422,-3.13718 0.052,-2.64998 0.2147,-3.48796 0.9644,-4.96856 0.574,-1.13323 2.0059,-2.48749 3.2569,-3.07999 0.9999,-0.47365 1.1515,-0.50028 2.8423,-0.49927 1.5175,6.8e-4 1.8992,0.0531 2.5391,0.34752 1.8447,0.8486 3.1153,2.26605 3.7102,4.13905 0.3321,1.04546 0.3966,2.87961 0.1984,5.6476 -0.1349,1.88561 -0.348,1.77774 2.3533,1.1915 4.6346,-1.0058 6.8096,-0.71801 8.8,1.16439 2.677,2.53189 2.6085,6.91137 -0.1536,9.80706 -1.4322,1.50145 -2.9834,2.18291 -5.8081,2.55154 -2.3921,0.31217 -3.792,0.7385 -4.1327,1.25851 -0.1415,0.216 -0.3139,0.75059 -0.383,1.18822 -0.069,0.43762 -0.2502,0.91759 -0.4022,1.06662 -0.3129,0.30667 -0.9384,0.4715 -1.286,0.33887 z m 21.5912,-3.92702 c -0.5265,-0.52643 -0.5176,-0.93626 0.052,-2.41412 0.8025,-2.08112 1.0806,-3.57457 1.0839,-5.82094 0.01,-4.15052 -1.575,-7.83364 -4.5455,-10.58826 -2.0072,-1.86132 -4.1543,-2.95795 -7.0904,-3.62137 -0.9174,-0.2072 -1.7224,-0.43205 -1.7887,-0.49942 -0.067,-0.0673 -0.3684,-0.70239 -0.6712,-1.41121 -1.3571,-3.17696 -3.695,-5.8357002 -6.4955,-7.3866702 -2.0265,-1.12238 -5.2364,-1.9608 -7.5126,-1.9623 -2.0967,-0.001 -5.1126,0.80117 -6.9878,1.85945 -1.4247,0.80405 -2.3896,0.49512 -2.3896,-0.76504 0,-0.75383 0.4155,-1.11104 2.3428,-2.01421 3.9238,-1.83876 8.5595,-2.03653 12.9771,-0.5536 3.4578,1.16074 6.6876,3.65711 8.7168,6.7372402 0.5155,0.78248 1.1334,1.873 1.3732,2.42342 l 0.436,1.0007 0.8347,0.17327 c 2.8435,0.5903 5.8411,2.16372 8.0582,4.22952 3.7581,3.50184 5.7706,8.99386 5.189,14.16143 -0.3111,2.76514 -1.2231,5.71859 -1.9791,6.40933 -0.4735,0.4326 -1.1946,0.45184 -1.6036,0.0427 z m -41.0889,-1.78287 c -0.4596,-0.45948 -0.4983,-1.14817 -0.093,-1.64884 0.2574,-0.31789 0.6951,-0.41926 4.0767,-0.94409 4.4399,-0.68908 4.9882,-0.71814 5.4191,-0.28725 0.4112,0.41121 0.4209,1.40502 0.018,1.77029 -0.2121,0.19191 -1.3847,0.43451 -4.2321,0.87574 -2.1663,0.33568 -4.1341,0.61148 -4.3729,0.61283 -0.2564,10e-4 -0.5902,-0.15358 -0.8153,-0.37868 z m 13.7978,-2.408 c -1.0548,-0.64311 -1.0508,-0.61545 -1.1013,-7.76936 -0.033,-4.7184 0,-6.53437 0.1373,-6.7843 0.2805,-0.52403 0.9687,-0.75331 1.5449,-0.51465 0.2595,0.10748 0.539,0.32105 0.6212,0.47453 0.088,0.16524 0.1494,2.79041 0.1494,6.433 0,3.38462 0.055,6.11946 0.1238,6.07734 0.1945,-0.12017 10.986,-1.80543 11.5613,-1.80543 0.8207,0 1.2051,0.36664 1.2051,1.1495 0,0.45811 -0.092,0.74971 -0.2964,0.93422 -0.2211,0.19995 -1.7702,0.50152 -6.0957,1.18625 -3.1896,0.50494 -6.1487,0.91897 -6.5758,0.92006 -0.4997,10e-4 -0.9537,-0.10593 -1.2737,-0.30116 z m -17.3906,-8.422 c -0.4258,-0.20591 -0.7359,-0.93353 -0.6106,-1.43277 0.053,-0.20952 0.2876,-0.51426 0.5223,-0.67716 0.6321,-0.43874 2.624,-1.21759 3.6881,-1.44206 1.4406,-0.30386 1.4162,-0.27622 1.5212,-1.73071 0.1813,-2.51471 1.3298,-5.50704 2.9303,-7.63419 1.482,-1.96974 3.9212,-3.66038 6.4198,-4.4496402 1.6698,-0.52749 4.5645,-0.60734 6.2955,-0.17378 4.412,1.1052002 7.648,4.4473302 8.7084,8.9939302 l 0.3339,1.43163 h 0.7451 c 1.0171,0 2.9944,0.28064 4.029,0.57186 1.1086,0.31206 3.3546,1.46645 3.999,2.05541 0.6737,0.61571 0.7171,1.53172 0.096,2.02057 -0.5937,0.46702 -0.9553,0.40419 -2.1357,-0.37108 -2.0166,-1.32445 -4.2374,-1.87932 -6.8511,-1.71163 -1.4914,0.0956 -1.5663,0.0852 -1.8804,-0.2621 -0.2357,-0.26057 -0.3777,-0.73694 -0.508,-1.70356 -0.3697,-2.74312 -1.3248,-4.70387 -3.1132,-6.39091 -4.6252,-4.3632902 -12.3163,-2.66227 -15.3042,3.38485 -0.7368,1.49119 -1.2745,3.67305 -1.4124,5.73164 -0.1333,1.99165 -0.2703,2.19286 -1.6019,2.35447 -1.1727,0.14245 -3.2785,0.75842 -4.2159,1.23342 -0.8241,0.4176 -1.1308,0.455 -1.6547,0.20175 z m 49.2529,-5.05691 c -0.2155,-0.3203 -0.7514,-1.14147 -1.1911,-1.8248 -0.457,-0.71027 -1.5026,-1.94723 -2.4412,-2.88787 -2.3522,-2.35751 -4.5219,-3.73427 -7.5529,-4.79268 -0.7644,-0.26695 -1.4685,-0.53501 -1.5645,-0.59564 -0.096,-0.0606 -0.5264,-0.70428 -0.9564,-1.43032 -3.4403,-5.8082502 -9.6362,-9.61095014 -16.3389,-10.02803014 -1.7988,-0.11189 -2.2464,-0.26762 -2.495,-0.86771005 -0.1604,-0.38697 -0.1505,-0.5512 0.06,-0.99208001 0.3209,-0.67305 0.682,-0.76179 2.591,-0.63669 4.2227,0.27673 8.5852,1.81897001 11.9992,4.242 1.9415,1.37788 4.2216,3.7496 5.6122,5.8378 1.183,1.77642 1.1997,1.793 2.1567,2.1435502 1.4747,0.54021 3.6178,1.63819 5.0618,2.59329 1.4176,0.93772 3.9656,3.29271 4.9591,4.58359 1.2088,1.57049 2.3583,3.55432 2.3583,4.06982 0,0.67417 -0.5467,1.16817 -1.2927,1.16817 -0.49,0 -0.6311,-0.0852 -0.9655,-0.5824 z m -48.6753,-2.95948 c -0.2597,-0.25967 -0.4721,-0.61172 -0.4721,-0.78232 0,-0.48663 0.9047,-2.92737 1.5916,-4.29393 0.7923,-1.5763 1.883,-3.19414 2.9135,-4.3217302 0.7117,-0.77861 0.8761,-0.88221 1.4007,-0.88221 0.4572,0 0.6687,0.0945 0.9163,0.40921 0.5163,0.65637 0.4128,1.1289602 -0.4727,2.1600502 -1.5774,1.83658 -2.7162,3.83597 -3.5582,6.24729 -0.5438,1.55713 -0.6465,1.69567 -1.3633,1.83902 -0.4016,0.0803 -0.5637,0.0155 -0.9558,-0.37538 z m 49.1468,-5.73863 c -2.7358,-2.62697 -5.7332,-4.5886502 -8.871,-5.8058202 -0.494,-0.19166 -0.7931,-0.47523 -1.3073,-1.23929 -0.8703,-1.29327 -2.3708,-3.08707 -3.5529,-4.24731 -0.8192,-0.8041299 -0.9443,-1.0032699 -0.9443,-1.50294994 0,-0.69608005 0.5588,-1.21958005 1.3022,-1.22000005 0.4075,-1.3e-4 0.717,0.23854 1.9626,1.51422005 0.8132,0.83295004 1.9597,2.15988994 2.5475,2.94870994 l 1.0688,1.43424 1.801,0.86556 c 2.312,1.11124 4.8053,2.78075 6.7831,4.5420202 1.7438,1.55293 2.0794,2.08986 1.7711,2.83413 -0.2261,0.5457 -0.5739,0.77059 -1.1916,0.77059 -0.3219,0 -0.6848,-0.23698 -1.3692,-0.8941 z m 0.2337,-7.1547902 c -1.4647,-1.07199 -2.8385,-1.90802 -4.5909,-2.79368 -1.4121,-0.71369 -1.6094,-0.87015 -2.3153,-1.8352399 -1.0094,-1.38018004 -3.5721,-4.0328601 -5.0469,-5.2241901 -6.8358,-5.5215097 -16.0403,-8.0972498 -24.5786,-6.8779498 -1.838,0.26247 -2.004,0.26438 -2.366,0.0272 -0.6989,-0.45799 -0.7161,-1.58619 -0.031,-2.03516 0.9809,-0.6427 7.573,-0.98227 10.8185,-0.55726 9.1216,1.19444 17.0602,5.5440498 22.6359,12.40228981 1.1038,1.35771005 1.2634,1.48850005 2.7407,2.24609009 1.6342,0.8380999 4.3647,2.5920399 5.1019,3.2773499 0.5198,0.48328 0.5597,1.133 0.1051,1.71097 -0.5178,0.65834 -1.2459,0.55813 -2.4735,-0.3404 z m -48.0456,0.11706 c -0.3215,-0.25278 -0.4093,-0.45648 -0.4093,-0.94919 0,-0.56298 0.089,-0.70918 0.8685,-1.4253 1.2844,-1.18016 3.3615,-2.6237499 5.0406,-3.50326994 1.656,-0.86738005 4.408,-1.84355006 5.5928,-1.98388006 0.6716,-0.0795 0.8295,-0.043 1.1605,0.26783 0.4598,0.43190001 0.5104,1.20197001 0.1114,1.69279006 -0.1761,0.21652 -0.7008,0.44402 -1.4898,0.64578004 -3.2175,0.82275 -5.6261,2.1474599 -9.0066,4.9536399 -0.8445,0.70102 -1.2725,0.77012 -1.8681,0.3016 z m 29.1762,-7.93452 c -2.2112,-1.30375 -5.246,-2.43608 -8.3276,-3.10714 -1.4006,-0.30502 -2.0598,-0.35104 -5.0286,-0.35104 -2.948,0 -3.6329,0.0471 -4.9927,0.34371 -1.8846,0.411 -4.3082,1.23259 -6.0942,2.06598 -0.7165,0.33431 -1.4504,0.60563 -1.6307,0.60292 -0.7798,-0.013 -1.3295,-0.97266 -1.0049,-1.75643 0.3613,-0.8723 4.7916,-2.66669 8.376,-3.39258 1.5622,-0.31633 2.2113,-0.35873 5.4241,-0.35417 3.3855,0.005 3.7958,0.0363 5.6686,0.4348 1.1104,0.2362 2.7528,0.67362 3.6497,0.97182 1.804,0.59984 5.0089,2.11773 6.0241,2.85315 0.5802,0.42032 0.654,0.54376 0.654,1.09402 0,1.37526001 -1.017,1.59787001 -2.7178,0.59496 z m 17.2968,0.2577 c -0.4663,-0.24294 -1.155,-0.88095 -1.9617,-1.81757 -3.1358,-3.64052 -6.4741,-6.3735397 -10.5802,-8.6617798 -0.9525,-0.53076 -1.8004,-1.09348 -1.8844,-1.25046 -0.4164,-0.77799 0.1795,-1.85886 1.0246,-1.85886 0.8285,0 5.1798,2.61785 7.7526,4.66417 1.596,1.2694401 4.1734,3.7716098 5.4903,5.3302998 0.5669,0.6709 1.2909,1.35252 1.6088,1.51473 0.9625,0.49103 1.2166,1.49445 0.5397,2.13049 -0.4644,0.43615001 -1.085,0.42025001 -1.9897,-0.051 z m -19.1947,-13.2774798 c -0.7021,-0.2432 -1.9446,-0.59637 -2.7612,-0.78504 -1.5677,-0.36226 -2.0967,-0.72908 -2.0967,-1.45385 0,-0.45013 0.4143,-1.01117 0.8766,-1.18689 0.7213,-0.27425 5.8665,1.14654 6.5206,1.80058 0.5996,0.59968 0.4746,1.48122 -0.2643,1.86332 -0.5824,0.30113 -0.7758,0.28088 -2.275,-0.23802 z"
       id="path1670-6"
       inkscape:connector-curvature="0" />
  </g>
  <g
     inkscape:groupmode="layer"
     id="layer5"
     inkscape:label="FORM"
     style="display:none"
     transform="translate(614.57125,75.550581)">
    <rect
       style="opacity:1;fill:#ffffff;fill-opacity:1;stroke:#8d14ab;stroke-width:0.26499999;stroke-linecap:round;stroke-linejoin:round;stroke-miterlimit:4;stroke-dasharray:none;stroke-opacity:1"
       id="rect2585"
       width="399.83521"
       height="503.5358"
       x="108.45459"
       y="-548.97864"
       transform="rotate(90)" />
    <path
       style="display:inline;fill:#fab99c;fill-opacity:1;stroke:#000000;stroke-width:0;stroke-linecap:butt;stroke-linejoin:miter;stroke-miterlimit:4;stroke-dasharray:none;stroke-opacity:1"
       d="m -731.11502,334.96718 c 0,0 -0.49504,-8.59474 -1.52739,-10.81842 -1.03223,-2.22365 -5.16492,-5.72667 -5.16492,-5.72667 0,0 -2.43729,-10.13766 -1.49017,-13.40453 0.94703,-3.26692 4.62868,-5.71433 4.62868,-5.71433 0,0 0.43311,7.92836 1.90435,10.51234 1.47129,2.58401 5.09787,4.6955 5.09787,4.6955 0,0 -2.00856,-24.8786 1.02544,-30.75441 3.03404,-5.87577 7.55549,-5.88152 7.55549,-5.88152 l -0.0461,24.31957 c 0,0 8.7788,-1.52624 11.61182,1.07015 2.40105,2.20043 0.77219,8.81933 0.77219,8.81933 0,0 7.03809,2.12166 7.11915,4.63358 0.21131,6.54963 -7.00743,18.03187 -7.00743,18.03187 l -3.88882,4.76871 0.53593,4.19353 -21.62005,-0.24128 z"
       id="path2200"
       inkscape:connector-curvature="0"
       sodipodi:nodetypes="czczczczccscsccccc" />
  </g>
  <g
     inkscape:groupmode="layer"
     id="layer8"
     inkscape:label="mano"
     transform="translate(614.57125,75.550581)">
    <path
       style="display:inline;fill:#fab99c;fill-opacity:1;stroke:#000000;stroke-width:0;stroke-linecap:butt;stroke-linejoin:miter;stroke-miterlimit:4;stroke-dasharray:none;stroke-opacity:1"
       d="m -243.44926,154.55324 c 0,0 0.25887,-5.56027 0.3084,-6.9276 0.0495,-1.36733 0.3675,-4.77744 0.3675,-4.77744 0,0 -0.36937,-5.90723 -0.79852,-7.98055 -0.42915,-2.07332 -9.43717,-0.29225 -9.43717,-0.29225 0,0 9.97743,10.17049 9.45886,0.3861 -0.33795,-4.49499 -4.46496,-12.61552 -5.63317,-14.42843 -2.27346,-3.52812 -2.79179,-0.25054 -2.79179,-0.25054 l 3.02934,13.58416 c 0,0 -9.70217,0.27722 -11.33445,2.08955 -1.38341,1.53589 -0.28679,5.28469 -0.28679,5.28469 0,0 -2.64736,1.83441 -2.54612,3.42631 0.26402,4.15078 4.18521,11.23425 4.18521,11.23425 l 2.74632,2.77678 -0.084,3.01601 13.64458,-1.79867 z"
       id="path2200-9-6"
       inkscape:connector-curvature="0"
       sodipodi:nodetypes="czczccsccscsccccc" />
    <path
       style="display:inline;fill:#fab99c;fill-opacity:1;stroke:#000000;stroke-width:0;stroke-linecap:butt;stroke-linejoin:miter;stroke-miterlimit:4;stroke-dasharray:none;stroke-opacity:1"
       d="m -340.07609,150.43419 c 0,0 1.41349,-5.27804 1.23428,-6.82373 -0.1792,-1.54561 -1.97196,-4.47978 -1.97196,-4.47978 0,0 0.55037,-6.59472 1.77181,-8.37482 1.22138,-1.7801 3.92754,-2.52173 3.92754,-2.52173 0,0 -1.31812,4.86414 -0.94617,6.71439 0.37198,1.85025 2.13692,3.84501 2.13692,3.84501 0,0 3.74474,-15.3927 6.74342,-18.32934 2.99871,-2.93665 5.72462,-2.03956 5.72462,-2.03956 l -4.87163,14.64658 c 0,0 5.59437,0.8287 6.7845,2.95766 1.0087,1.80425 -1.29113,5.46863 -1.29113,5.46863 0,0 3.81881,2.68039 3.36735,4.21028 -1.17718,3.9891 -7.81436,9.47091 -7.81436,9.47091 l -3.29333,2.09923 -0.58637,2.95965 -12.90686,-4.77732 z"
       id="path2200-9-6-6"
       inkscape:connector-curvature="0"
       sodipodi:nodetypes="czczczczccscsccccc" />
  </g>
</svg>
