<svg width="623" height="578" viewBox="0 0 623 578" fill="none" xmlns="http://www.w3.org/2000/svg">
<g clip-path="url(#clip0)">
<path opacity="0.497" d="M330.338 572.529C271.504 570.107 222.864 499.035 165.047 510.196C135.306 515.937 128.049 575.899 98.0646 571.604C50.4944 564.79 25.1052 496.293 23.4179 448.267C22.0997 410.743 78.4232 385.421 74.8338 348.047C70.9741 307.858 1.3649 293.124 0.045929 252.771C-1.405 208.382 31.6903 151.244 75.2967 142.815C95.9516 138.822 106.958 174.884 127.783 177.862C206.098 189.061 343.465 185.048 354.188 106.667C357.757 80.5823 283.984 89.6313 287.976 63.6083C296.3 9.33474 411.377 -22.773 446.635 19.3198C461.691 37.2941 411.715 59.6775 416.136 82.7038C430.793 159.06 546.201 174.882 587.911 240.498C607.793 271.775 626.321 309.847 621.264 346.561C617.739 372.145 599.377 395.69 578.905 411.433C558.846 426.859 519.215 413.165 506.816 435.223C493.157 459.525 539.86 492.673 525.712 516.695C491.339 575.056 398.013 575.314 330.338 572.529Z" fill="#7E254E"/>
<path d="M239.345 74.2554C242.166 74.2554 244.453 72.2638 244.453 69.8071C244.453 67.3503 242.166 65.3588 239.345 65.3588C236.524 65.3588 234.237 67.3503 234.237 69.8071C234.237 72.2638 236.524 74.2554 239.345 74.2554Z" fill="#FFAAAA" stroke="#FFAAAA" stroke-width="1.40244"/>
<path d="M253.193 74.2554C256.014 74.2554 258.3 72.2638 258.3 69.8071C258.3 67.3503 256.014 65.3588 253.193 65.3588C250.372 65.3588 248.085 67.3503 248.085 69.8071C248.085 72.2638 250.372 74.2554 253.193 74.2554Z" fill="#FFAAAA" stroke="#FFAAAA" stroke-width="1.40244"/>
<path d="M267.37 74.5851C270.191 74.5851 272.478 72.5935 272.478 70.1368C272.478 67.68 270.191 65.6885 267.37 65.6885C264.549 65.6885 262.263 67.68 262.263 70.1368C262.263 72.5935 264.549 74.5851 267.37 74.5851Z" fill="#FFAAAA" stroke="#FFAAAA" stroke-width="1.40244"/>
<path d="M430.794 42.7899H237.266C233.225 42.7899 229.949 46.066 229.949 50.1073V211.651C229.949 215.692 233.225 218.968 237.266 218.968H430.794C434.835 218.968 438.111 215.692 438.111 211.651V50.1073C438.111 46.066 434.835 42.7899 430.794 42.7899Z" fill="#216FA9"/>
<path d="M429.009 54.1222H239.458V206.102H429.009V54.1222Z" fill="white"/>
<path d="M370.4 93.5798H252.61V98.297H370.4V93.5798Z" fill="#216FA9"/>
<path d="M372.597 177.483H284.728V197.993H372.597V177.483Z" fill="#7E254E"/>
<path d="M376.112 103.659H252.61V108.376H376.112V103.659Z" fill="#DEDEDE"/>
<path d="M376.63 111.943H252.661V116.66H376.63V111.943Z" fill="#DEDEDE"/>
<path d="M352.034 119.636H252.895V124.353H352.034V119.636Z" fill="#DEDEDE"/>
<path d="M370.543 134.119H252.752V138.836H370.543V134.119Z" fill="#216FA9"/>
<path d="M376.573 144.198H252.752V148.915H376.573V144.198Z" fill="#DEDEDE"/>
<path d="M375.966 152.481H252.804V157.199H375.966V152.481Z" fill="#DEDEDE"/>
<path d="M352.177 160.175H253.037V164.892H352.177V160.175Z" fill="#DEDEDE"/>
<path d="M414.348 102.67H388.683V129.102H414.348V102.67Z" stroke="#DEDEDE" stroke-width="1.68021" stroke-linecap="round" stroke-linejoin="round"/>
<path d="M414.49 141.231H388.825V167.663H414.49V141.231Z" stroke="#DEDEDE" stroke-width="1.68021" stroke-linecap="round" stroke-linejoin="round"/>
<path d="M393.564 115.001L397.819 122.303L411.932 108.306" stroke="#27BE55" stroke-width="3.41099"/>
<path d="M392.742 154.22L396.996 161.522L411.11 147.526" stroke="#26BA53" stroke-width="3.41099"/>
<path d="M335.432 64.0234H252.58V68.7406H335.432V64.0234Z" fill="#DEDEDE"/>
<path d="M335.779 72.3068H252.615V77.0239H335.779V72.3068Z" fill="#DEDEDE"/>
<path d="M319.279 80.0005H252.771V84.7176H319.279V80.0005Z" fill="#DEDEDE"/>
<path d="M148.855 209.164C148.855 209.164 134.453 212.67 123.823 218.577C97.7902 233.045 67.218 272.233 67.218 272.233L29.3484 455.611C29.3484 455.611 41.4444 468.116 49.4434 470.375C52.6115 471.27 59.2858 469.555 59.2858 469.555C59.2858 469.555 68.4258 477.413 74.0495 478.987C79.8433 480.609 92.094 478.577 92.094 478.577C92.094 478.577 91.0764 483.71 92.5041 485.549C96.6408 490.875 111.779 491.7 111.779 491.7H208.563C208.563 491.7 223.408 491.143 228.248 486.369C230.374 484.273 230.709 477.757 230.709 477.757C230.709 477.757 245.87 480.563 252.854 478.167C257.176 476.685 263.517 469.555 263.517 469.555C263.517 469.555 273.444 470.572 277.87 468.735C284.308 466.062 293.454 454.791 293.454 454.791L258.239 269.719C258.239 269.719 230.629 236.424 208.895 222.606C196.531 214.745 176.254 209.744 176.254 209.744L148.855 209.164Z" fill="#EABD00"/>
<path d="M200.883 393.03L206.446 504.775L182.675 507.514L168.007 405.081L200.883 393.03Z" fill="#FAB99C"/>
<path d="M130.561 393.03L124.997 504.775L148.769 507.514L163.437 405.081L130.561 393.03Z" fill="#FAB99C"/>
<path d="M210.212 500.913L209.818 556.825C209.818 556.825 228.235 561.472 234.721 567.393C237.503 569.933 239.154 577.386 239.154 577.386L194.139 577.641L178.572 503.265L194.077 499.215L210.212 500.913Z" fill="#EABD00"/>
<path d="M121.063 500.902L121.456 556.814C121.456 556.814 101.278 561.347 94.0508 568.552C91.6948 570.901 89.7919 577.879 89.7919 577.879L137.136 577.63L152.703 503.254L137.197 499.204L121.063 500.902Z" fill="#EABD00"/>
<path d="M137.204 345.16C137.204 345.16 134.938 333.424 130.494 332.367C128.698 331.94 129.317 335.96 126.059 335.837C123.032 334.105 121.506 329.764 119.511 326.149L104.009 336.958C108.675 345.16 114.535 354.806 120.226 359.717C124.304 361.949 131.486 360.778 134.793 359.841L137.204 345.16Z" fill="#FAB99C"/>
<path d="M126.977 249.829L122.386 241.565L88.4117 280.437L126.059 335.837L110.755 346.244C110.755 346.244 82.9187 307.563 69.4349 288.701C65.6965 283.472 64.8939 273.641 69.7408 269.418C84.0677 256.937 93.6732 242.976 114.313 227.03C121.869 221.192 125.64 220.756 131.875 217.079C138.533 213.152 152.624 209.849 152.624 209.849V193.817L172.138 193.627L172.545 209.48C172.545 209.48 192.603 214.653 200.838 219.454C223.503 232.667 245.184 255.352 245.184 255.352C245.474 255.698 247.7 258.762 250.067 260.945C251.51 262.277 252.041 264.053 253.751 263.713C260.874 259.025 273.141 226.485 280.012 217.842C289.019 206.512 290.495 222.56 290.495 222.56C290.495 222.56 269.422 277.085 263.724 281.373C258.026 285.662 255.284 284.996 251.431 284.247C247.578 283.498 242.593 279.372 242.593 279.372L205.639 242.177L197.987 264.827L130.344 264.521L126.977 249.829Z" fill="#FAB99C"/>
<path d="M192.172 349.721L137.812 349.893C137.812 349.893 127.005 367.855 123.611 377.158C119.886 387.366 116.571 408.99 116.571 408.99C116.571 408.99 148.178 411.374 164.013 411.438C180.454 411.505 213.291 409.296 213.291 409.296C213.291 409.296 210.799 386.752 206.863 376.24C203.434 367.078 192.172 349.722 192.172 349.722V349.721Z" fill="#7E254E"/>
<path d="M137.384 350.835H192.172L195.232 307.678C195.232 307.678 195.681 300.63 197.905 291.059C200.694 279.053 205.225 263.254 203.191 254.421C201.806 248.409 197.785 242.087 192.784 239.117C187.895 236.213 181.386 234.694 175.95 236.362C170.982 237.886 164.625 247.075 164.625 247.075C164.625 247.075 158.511 239.734 154.218 238.198C149.222 236.411 143.146 236.339 138.302 238.505C132.832 240.95 127.931 245.974 126.059 251.666C121.507 265.506 130.153 286.547 133.397 305.484C137.561 329.794 137.384 350.835 137.384 350.835Z" fill="#7E254E"/>
<path d="M147.584 119.244L124.393 166.767L139.791 192.809L183.131 192.239L195.297 165.626L188.454 144.526L157.279 132.36L149.866 116.393L147.584 119.244Z" fill="#FAB99C"/>
<path d="M181.23 170.188L192.636 155.551" stroke="#FFFBFB" stroke-width="1.52072"/>
<path d="M142.452 169.998L131.047 155.361" stroke="#FFFBFB" stroke-width="1.52072"/>
<path d="M123.063 144.716C119.826 162.675 119.128 181.643 123.063 199.462C123.906 203.282 125.497 207.104 128.005 210.107C132.378 215.342 144.733 221.893 144.733 221.893L145.113 192.619C145.113 192.619 137.641 184.965 134.848 180.453C131.652 175.289 126.527 169.699 127.625 163.725C128.776 157.467 137.169 155.17 140.931 150.039C144.25 145.512 147.407 140.619 148.915 135.212C150.278 130.323 149.675 120.004 149.675 120.004L151.956 135.592C151.956 135.592 160.348 140.865 164.883 142.815C170.737 145.334 178.123 144.577 183.131 148.518C186.616 151.259 188.981 155.602 189.974 159.923C191.257 165.503 190.263 171.599 188.454 177.031C186.476 182.971 178.569 192.999 178.569 192.999V222.653C178.569 222.653 190.122 213.755 194.156 207.826C197.387 203.079 199.569 197.504 200.62 191.858C203.402 176.906 203.366 161.036 199.859 146.237C198.108 138.846 195.102 131.31 189.974 125.707C185.294 120.592 178.776 116.952 172.106 115.062C163.936 112.747 154.792 112.326 146.634 114.682C140.387 116.486 134.35 120.251 130.286 125.327C125.976 130.711 124.286 137.928 123.063 144.716Z" fill="#604557"/>
<path d="M140.361 168.667L160.891 162.585L182.751 168.477C182.751 168.477 183.677 187.955 181.761 191.725C179.858 195.466 176.165 197.253 172.106 198.322C166.407 199.822 160.225 199.569 154.428 198.512C149.276 197.572 145.778 198.194 142.874 193.837C138.411 187.139 140.361 168.667 140.361 168.667Z" fill="white"/>
<path d="M147.014 181.213L161.651 179.503L176.098 181.594" stroke="#7E254E" stroke-width="1.52072"/>
<path d="M147.204 188.627H175.908" stroke="#7E254E" stroke-width="1.52072"/>
<path d="M146.824 174.75L161.651 170.948L176.478 175.13" stroke="#7E254E" stroke-width="1.52072"/>
<path d="M475.736 207.421C475.736 207.421 460.756 207.278 450.549 212.978C425.554 226.938 381.395 279.113 381.395 279.113L360.991 445.217C360.991 445.217 372.605 457.282 380.286 459.462C383.328 460.325 389.736 458.67 389.736 458.67C389.736 458.67 398.512 466.253 403.911 467.772C409.474 469.336 421.237 467.376 421.237 467.376C421.237 467.376 420.26 472.329 421.631 474.103C425.603 479.243 440.138 480.039 440.138 480.039H533.066C533.066 480.039 547.319 479.501 551.966 474.894C554.007 472.872 554.329 466.585 554.329 466.585C554.329 466.585 568.886 469.292 575.592 466.98C579.741 465.55 585.83 458.67 585.83 458.67C585.83 458.67 595.362 459.652 599.611 457.879C605.793 455.3 614.574 444.425 614.574 444.425L588.913 277.278C588.913 277.278 545.708 228.254 524.84 214.92C512.969 207.335 502.044 207.98 502.044 207.98L475.736 207.421Z" fill="#EABD00"/>
<path d="M521.368 355.549C521.368 355.549 523.583 344.081 527.924 343.049C529.679 342.632 529.074 346.56 532.257 346.44C535.215 344.748 536.705 340.375 538.655 336.843L553.866 347.863C549.308 355.877 543.517 364.973 537.956 369.771C533.971 371.952 526.955 370.808 523.724 369.893L521.368 355.549Z" fill="#FAB99C"/>
<path d="M457.26 211.018C457.26 211.018 468.001 209.848 473.606 208.749C475.999 208.279 476.994 203.454 476.994 203.454L499.231 203.242C499.231 203.242 500.676 208.403 502.831 209.384C509.428 212.386 521.062 213.487 521.062 213.487L486.524 236.068L457.26 211.018Z" fill="#FAB99C"/>
<path d="M459.629 130.391C459.629 130.391 455.638 157.549 457.087 171.052C457.612 175.94 458.684 180.966 461.111 185.241C464.514 191.234 475.3 200.277 475.3 200.277L496.902 200.489C496.902 200.489 512.046 192.025 516.597 185.029C519.417 180.695 519.868 175.135 520.409 169.993C521.747 157.277 518.927 131.661 518.927 131.661L459.629 130.391Z" fill="#FAB99C"/>
<path d="M446.436 358.663L444.082 253.487L398.73 300.337C398.73 300.337 390.324 306.056 385.961 306.142C381.832 306.223 375.268 303.181 373.866 299.588C367.345 282.875 355.933 237.45 355.933 237.45C355.933 237.45 370.921 235.351 374.689 235.112L387.096 280.912L453.347 211.982C453.347 211.982 455.225 210.863 457.26 211.018C458.787 211.134 460.341 212.627 460.341 212.627L479.072 228.893C482.57 231.93 492.565 231.728 496.358 229.068L517.666 214.126C517.666 214.126 519.202 213.067 521.062 213.487C522.64 213.842 523.544 214.652 523.544 214.652L588.913 277.278C588.913 277.278 591.981 281.362 592.373 283.788C592.832 286.62 590.939 292.275 590.939 292.275L555.453 349.678L535.686 335.302L562.641 289.778L529.097 253.239L523.706 358.663L446.436 358.663Z" fill="#7E254E"/>
<path d="M446.436 374.836L485.371 388.014L523.706 374.836V358.663H446.436V374.836Z" fill="#EABD00"/>
<path d="M523.707 374.836L530.296 497.032L502.143 500.027L484.772 388.014L523.707 374.836Z" fill="#7E254E"/>
<path d="M446.436 374.836L439.847 497.032L468 500.027L485.371 388.014L446.436 374.836Z" fill="#7E254E"/>
<path d="M534.755 492.808L534.289 553.949C534.289 553.949 556.099 559.03 563.781 565.505C567.076 568.282 569.031 576.433 569.031 576.433L515.72 576.711L497.284 495.38L515.647 490.951L534.755 492.808Z" fill="#EABD00"/>
<path d="M435.188 492.796L435.654 553.936C435.654 553.936 411.757 558.893 403.197 566.772C400.407 569.341 398.153 576.972 398.153 576.972L454.223 576.698L472.659 495.367L454.295 490.939L435.188 492.796Z" fill="#EABD00"/>
<path d="M465.135 172.746L488.219 165.122L510.244 171.899V196.254C510.244 196.254 505.13 200.361 502.196 201.76C497.741 203.885 492.943 205.993 488.007 205.995C482.557 205.998 477.153 203.885 472.335 201.336C469.275 199.717 464.288 194.771 464.288 194.771L465.135 172.746Z" fill="white"/>
<path d="M471.065 192.23H504.102H471.065Z" fill="#FFD700"/>
<path d="M471.065 192.23H504.102" stroke="#7E254E" stroke-width="1.48804"/>
<path d="M470.853 185.241L488.431 183.547L504.314 185.665" stroke="#7E254E" stroke-width="1.48804"/>
<path d="M470.853 178.041L488.219 173.805L504.348 178.127" stroke="#7E254E" stroke-width="1.48804"/>
<path d="M509.291 173.011L520.409 156.651" stroke="white" stroke-width="1.48804"/>
<path d="M466.194 173.752L454.97 157.498" stroke="white" stroke-width="1.48804"/>
<path d="M453.911 159.828L463.653 147.333C463.653 147.333 477.403 139.458 481.442 143.944C484.057 146.849 480.171 156.439 480.171 156.439C480.171 156.439 486.276 155.681 492.579 151.027C496.951 147.8 498.86 138.681 502.832 139.285C505.11 139.632 507.279 144.58 507.279 144.58C507.279 144.58 509.976 141.771 511.514 142.25C514.679 143.237 515.088 147.947 515.962 151.145C517.025 155.036 516.809 163.216 516.809 163.216C516.809 163.216 522.857 156.263 524.221 151.992C526.09 146.138 526.506 139.487 524.856 133.567C523.296 127.965 520.327 121.924 515.326 118.955C513.013 117.581 509.55 117.874 507.067 116.837C501.987 114.714 502.261 110.107 497.114 108.154C491.767 106.126 483.105 105.658 477.63 107.307C469.7 109.695 462.191 114.761 457.087 121.284C452.45 127.213 449.599 134.943 449.252 142.462C448.975 148.449 453.911 159.828 453.911 159.828Z" fill="#604557"/>
<path d="M482.466 313.918C481.62 313.577 481.597 312.654 482.403 311.471C483.027 310.556 483.544 309.227 483.736 308.048C483.796 307.681 483.991 307.244 484.169 307.078C484.585 306.691 485.382 306.688 485.855 307.073C486.166 307.325 486.218 307.496 486.193 308.198C486.111 310.557 484.164 314.126 482.992 314.065C482.889 314.06 482.652 313.993 482.466 313.918L482.466 313.918ZM488.594 313.802C488.162 313.31 488.154 312.912 488.557 311.736C489.185 309.9 489.284 309.323 489.388 306.895C489.464 305.127 489.541 304.554 489.729 304.366C489.862 304.233 490.701 303.959 491.592 303.758C494.557 303.088 496.664 301.999 498.496 300.191C499.841 298.864 500.633 297.663 501.216 296.066C502.047 293.787 502.1 291.574 501.372 289.473C500.975 288.329 500.973 287.973 501.359 287.558C501.787 287.099 502.241 286.991 502.79 287.218C503.867 287.664 504.613 291.015 504.289 293.95C503.969 296.849 502.67 299.523 500.51 301.73C498.253 304.036 495.934 305.281 492.108 306.238C492.004 306.264 491.901 306.968 491.844 308.042C491.706 310.624 490.798 313.709 490.098 313.977C489.611 314.164 488.832 314.074 488.594 313.802L488.594 313.802ZM495.049 312.292C494.869 312.165 494.68 311.897 494.629 311.695C494.488 311.133 494.925 309.105 495.254 308.792C495.411 308.643 496.12 308.274 496.828 307.973C498.956 307.067 500.64 305.918 502.512 304.096C503.996 302.651 504.297 302.426 504.744 302.426C505.365 302.426 506.023 303.01 506.023 303.561C506.023 304.066 505.364 304.932 503.982 306.24C502.431 307.708 501.03 308.686 498.97 309.738C497.296 310.593 497.251 310.63 497.095 311.272C496.829 312.363 495.848 312.851 495.049 312.292ZM473.009 310.298C472.598 309.944 472.589 309.897 472.474 307.424C472.385 305.507 472.297 304.818 472.103 304.522C471.798 304.056 471.862 304.058 469.747 304.443C467.379 304.873 466.834 304.857 466.432 304.346C466.015 303.816 466.024 303.317 466.459 302.824C466.744 302.502 467.124 302.366 468.517 302.091C470.817 301.635 472.681 301.619 473.409 302.046C474.052 302.424 474.585 303.306 474.722 304.218C474.948 305.727 475.084 309.651 474.921 309.958C474.513 310.726 473.679 310.874 473.008 310.298L473.009 310.298ZM478.224 310.191C477.927 309.895 477.913 309.674 477.913 305.234C477.913 302.679 477.956 300.475 478.01 300.337C478.155 299.958 478.939 299.609 479.39 299.723C479.606 299.777 479.921 299.997 480.09 300.213C480.38 300.58 480.398 300.839 480.386 304.427C480.37 308.878 480.27 309.985 479.854 310.289C479.423 310.604 478.587 310.554 478.224 310.191L478.224 310.191ZM484.747 304.649C484.164 304.427 483.97 304.085 483.97 303.284C483.97 301.404 484.763 300.088 486.346 299.339C487.394 298.844 488.311 298.625 490.62 298.316C492.556 298.057 493.704 297.611 494.671 296.742C495.805 295.722 496.318 294.587 496.313 293.108C496.303 291.722 495.968 290.947 494.995 290.115C493.745 289.044 492.395 288.948 488.851 289.676C487.563 289.941 486.271 290.157 485.978 290.156C485.09 290.155 484.322 289.863 483.906 289.369C483.237 288.573 483.138 287.87 483.317 285.187C483.551 281.682 483.276 280.553 481.889 279.332C479.85 277.537 476.585 278.321 475.366 280.898C474.914 281.853 474.594 283.609 474.727 284.405C474.778 284.707 474.75 285.854 474.666 286.954C474.541 288.594 474.441 289.102 474.109 289.78C473.463 291.102 472.642 291.481 469.086 292.106C466.459 292.567 465.327 293.02 464.116 294.095C463.452 294.685 463.196 294.816 462.712 294.816C461.962 294.816 461.544 294.389 461.544 293.62C461.544 293.141 461.668 292.945 462.412 292.253C463.903 290.866 465.429 290.183 467.973 289.766C470.786 289.304 471.639 288.853 472.005 287.633C472.112 287.274 472.22 285.881 472.247 284.496C472.299 281.846 472.462 281.008 473.212 279.527C473.785 278.394 475.217 277.04 476.468 276.447C477.468 275.974 477.62 275.947 479.311 275.948C480.828 275.949 481.21 276.001 481.85 276.295C483.694 277.144 484.965 278.562 485.56 280.434C485.892 281.48 485.957 283.314 485.758 286.082C485.623 287.968 485.41 287.86 488.112 287.274C492.746 286.268 494.921 286.556 496.912 288.438C499.589 290.97 499.52 295.349 496.758 298.245C495.326 299.746 493.775 300.428 490.95 300.797C488.558 301.109 487.158 301.535 486.817 302.055C486.676 302.271 486.503 302.806 486.434 303.243C486.365 303.681 486.184 304.161 486.032 304.31C485.719 304.617 485.094 304.781 484.746 304.649H484.747ZM506.338 300.722C505.811 300.195 505.82 299.786 506.39 298.308C507.192 296.227 507.47 294.733 507.474 292.487C507.484 288.336 505.899 284.653 502.928 281.898C500.921 280.037 498.774 278.941 495.838 278.277C494.92 278.07 494.115 277.845 494.049 277.778C493.982 277.71 493.681 277.075 493.378 276.366C492.021 273.19 489.683 270.531 486.882 268.98C484.856 267.857 481.646 267.019 479.37 267.018C477.273 267.017 474.257 267.819 472.382 268.877C470.957 269.681 469.992 269.372 469.992 268.112C469.992 267.358 470.408 267.001 472.335 266.098C476.259 264.259 480.895 264.061 485.312 265.544C488.77 266.705 492 269.201 494.029 272.281C494.545 273.064 495.163 274.154 495.402 274.705L495.838 275.705L496.673 275.879C499.516 276.469 502.514 278.042 504.731 280.108C508.489 283.61 510.502 289.102 509.92 294.27C509.609 297.035 508.697 299.988 507.941 300.679C507.468 301.112 506.747 301.131 506.337 300.722L506.338 300.722ZM465.249 298.939C464.789 298.479 464.751 297.791 465.156 297.29C465.413 296.972 465.851 296.871 469.233 296.346C473.673 295.657 474.221 295.628 474.652 296.059C475.063 296.47 475.073 297.464 474.67 297.829C474.458 298.021 473.285 298.264 470.438 298.705C468.271 299.04 466.303 299.316 466.065 299.318C465.808 299.319 465.474 299.164 465.249 298.939H465.249ZM479.047 296.531C477.992 295.888 477.996 295.915 477.945 288.762C477.912 284.043 477.945 282.227 478.083 281.977C478.363 281.453 479.051 281.224 479.628 281.463C479.887 281.57 480.167 281.784 480.249 281.937C480.337 282.102 480.398 284.728 480.398 288.37C480.398 291.755 480.453 294.49 480.522 294.448C480.717 294.327 491.508 292.642 492.083 292.642C492.904 292.642 493.288 293.009 493.288 293.792C493.288 294.25 493.195 294.541 492.992 294.726C492.771 294.926 491.222 295.227 486.896 295.912C483.707 296.417 480.748 296.831 480.321 296.832C479.821 296.833 479.367 296.726 479.047 296.531H479.047ZM461.656 288.109C461.23 287.903 460.92 287.175 461.045 286.676C461.098 286.467 461.333 286.162 461.568 285.999C462.2 285.56 464.192 284.781 465.256 284.557C466.696 284.253 466.672 284.281 466.777 282.826C466.958 280.312 468.107 277.319 469.707 275.192C471.189 273.222 473.629 271.532 476.127 270.742C477.797 270.215 480.692 270.135 482.423 270.569C486.835 271.674 490.071 275.016 491.131 279.563L491.465 280.994H492.21C493.227 280.994 495.205 281.275 496.239 281.566C497.348 281.878 499.594 283.033 500.238 283.621C500.912 284.237 500.955 285.153 500.334 285.642C499.74 286.109 499.379 286.046 498.198 285.271C496.182 283.946 493.961 283.392 491.347 283.559C489.856 283.655 489.781 283.645 489.467 283.297C489.231 283.037 489.089 282.56 488.959 281.594C488.589 278.851 487.634 276.89 485.846 275.203C481.22 270.839 473.529 272.54 470.541 278.588C469.805 280.079 469.267 282.261 469.129 284.319C468.996 286.311 468.859 286.512 467.527 286.674C466.355 286.816 464.249 287.432 463.311 287.907C462.487 288.325 462.18 288.362 461.657 288.109L461.656 288.109ZM510.909 283.052C510.693 282.732 510.158 281.911 509.718 281.227C509.261 280.517 508.215 279.28 507.277 278.339C504.924 275.982 502.755 274.605 499.724 273.547C498.959 273.28 498.255 273.012 498.159 272.951C498.063 272.89 497.633 272.247 497.203 271.521C493.763 265.712 487.567 261.91 480.864 261.493C479.065 261.381 478.618 261.225 478.369 260.625C478.209 260.238 478.219 260.074 478.429 259.633C478.75 258.96 479.111 258.871 481.02 258.996C485.243 259.273 489.605 260.815 493.019 263.238C494.961 264.616 497.241 266.988 498.631 269.076C499.814 270.852 499.831 270.869 500.788 271.22C502.263 271.76 504.406 272.858 505.85 273.813C507.268 274.751 509.816 277.106 510.809 278.396C512.018 279.967 513.167 281.951 513.167 282.466C513.167 283.14 512.621 283.634 511.875 283.634C511.385 283.634 511.243 283.549 510.909 283.052H510.909ZM462.234 280.093C461.974 279.833 461.762 279.481 461.762 279.31C461.762 278.824 462.666 276.383 463.353 275.016C464.145 273.44 465.236 271.822 466.267 270.695C466.978 269.916 467.143 269.812 467.667 269.812C468.125 269.812 468.336 269.907 468.584 270.222C469.1 270.878 468.997 271.351 468.111 272.382C466.534 274.218 465.395 276.218 464.553 278.629C464.009 280.186 463.906 280.325 463.19 280.468C462.788 280.548 462.626 280.483 462.234 280.093ZM511.381 274.354C508.645 271.727 505.647 269.765 502.51 268.548C502.016 268.356 501.716 268.073 501.202 267.309C500.332 266.016 498.831 264.222 497.649 263.061C496.83 262.257 496.705 262.058 496.705 261.559C496.705 260.862 497.264 260.339 498.007 260.339C498.415 260.338 498.724 260.577 499.97 261.853C500.783 262.686 501.929 264.013 502.517 264.801L503.586 266.236L505.387 267.101C507.699 268.212 510.192 269.882 512.17 271.643C513.914 273.196 514.25 273.733 513.941 274.477C513.715 275.023 513.367 275.248 512.75 275.248C512.428 275.248 512.065 275.011 511.381 274.354ZM511.614 267.199C510.15 266.127 508.776 265.291 507.023 264.405C505.611 263.692 505.414 263.535 504.708 262.57C503.699 261.19 501.136 258.537 499.661 257.346C492.825 251.824 483.621 249.249 475.082 250.468C473.244 250.731 473.079 250.732 472.717 250.495C472.018 250.037 472 248.909 472.686 248.46C473.666 247.817 480.258 247.478 483.504 247.903C492.626 249.097 500.564 253.447 506.14 260.305C507.244 261.663 507.403 261.794 508.881 262.551C510.515 263.389 513.245 265.143 513.982 265.829C514.502 266.312 514.542 266.962 514.088 267.54C513.57 268.198 512.842 268.098 511.614 267.199L511.614 267.199ZM463.568 267.316C463.247 267.063 463.159 266.86 463.159 266.367C463.159 265.804 463.248 265.658 464.028 264.942C465.312 263.762 467.389 262.318 469.068 261.438C470.724 260.571 473.476 259.595 474.661 259.455C475.333 259.375 475.491 259.412 475.822 259.722C476.281 260.154 476.332 260.924 475.933 261.415C475.757 261.632 475.232 261.859 474.443 262.061C471.226 262.884 468.817 264.208 465.437 267.015C464.592 267.716 464.164 267.785 463.568 267.316ZM492.745 259.382C490.534 258.078 487.499 256.946 484.417 256.275C483.017 255.97 482.357 255.923 479.389 255.923C476.44 255.923 475.756 255.971 474.396 256.267C472.511 256.678 470.088 257.5 468.302 258.333C467.585 258.667 466.851 258.939 466.671 258.936C465.891 258.923 465.341 257.963 465.666 257.18C466.027 256.307 470.458 254.513 474.042 253.787C475.604 253.471 476.253 253.428 479.466 253.433C482.852 253.438 483.262 253.469 485.135 253.868C486.245 254.104 487.888 254.541 488.784 254.84C490.588 255.439 493.793 256.957 494.809 257.693C495.389 258.113 495.463 258.236 495.463 258.787C495.463 260.162 494.446 260.385 492.745 259.382ZM510.042 259.64C509.575 259.397 508.887 258.759 508.08 257.822C504.944 254.181 501.606 251.448 497.5 249.16C496.547 248.629 495.699 248.067 495.615 247.91C495.199 247.132 495.795 246.051 496.64 246.051C497.468 246.051 501.82 248.669 504.393 250.715C505.989 251.985 508.566 254.487 509.883 256.045C510.45 256.716 511.174 257.398 511.492 257.56C512.454 258.051 512.708 259.055 512.031 259.691C511.567 260.127 510.946 260.111 510.042 259.64ZM490.847 246.362C490.145 246.119 488.902 245.766 488.086 245.577C486.518 245.215 485.989 244.848 485.989 244.123C485.989 243.673 486.403 243.112 486.866 242.936C487.587 242.662 492.732 244.083 493.386 244.737C493.986 245.337 493.861 246.218 493.122 246.6C492.54 246.901 492.346 246.881 490.847 246.362V246.362Z" fill="white"/>
<path d="M160.986 331.487C160.14 331.146 160.116 330.224 160.923 329.04C161.546 328.125 162.064 326.796 162.256 325.618C162.316 325.25 162.51 324.813 162.689 324.647C163.104 324.26 163.901 324.258 164.375 324.642C164.686 324.894 164.737 325.065 164.713 325.768C164.631 328.127 162.683 331.696 161.512 331.634C161.409 331.629 161.172 331.563 160.985 331.487L160.986 331.487ZM167.113 331.372C166.681 330.879 166.674 330.481 167.076 329.305C167.704 327.47 167.803 326.892 167.907 324.465C167.983 322.696 168.061 322.124 168.248 321.936C168.382 321.803 169.22 321.528 170.111 321.327C173.077 320.657 175.183 319.569 177.016 317.76C178.361 316.433 179.152 315.233 179.735 313.635C180.567 311.357 180.619 309.144 179.891 307.042C179.495 305.898 179.493 305.542 179.878 305.128C180.306 304.668 180.761 304.56 181.309 304.787C182.386 305.234 183.133 308.585 182.809 311.52C182.489 314.419 181.19 317.092 179.029 319.3C176.773 321.605 174.453 322.85 170.628 323.808C170.524 323.834 170.421 324.537 170.363 325.611C170.225 328.193 169.318 331.278 168.618 331.547C168.13 331.734 167.352 331.643 167.113 331.372L167.113 331.372ZM173.568 329.861C173.388 329.735 173.2 329.466 173.149 329.264C173.008 328.703 173.445 326.674 173.774 326.362C173.931 326.212 174.639 325.844 175.348 325.542C177.475 324.636 179.159 323.488 181.032 321.665C182.515 320.221 182.816 319.996 183.264 319.996C183.884 319.996 184.543 320.58 184.543 321.13C184.543 321.636 183.884 322.501 182.502 323.809C180.95 325.278 179.549 326.256 177.489 327.308C175.816 328.163 175.771 328.2 175.614 328.842C175.349 329.932 174.368 330.421 173.568 329.861ZM151.528 327.867C151.117 327.514 151.109 327.466 150.994 324.994C150.905 323.077 150.817 322.388 150.623 322.092C150.317 321.626 150.382 321.628 148.267 322.012C145.899 322.443 145.353 322.427 144.951 321.916C144.535 321.386 144.544 320.887 144.979 320.394C145.264 320.071 145.645 319.936 147.037 319.66C149.338 319.205 151.201 319.188 151.929 319.616C152.573 319.994 153.105 320.875 153.242 321.788C153.468 323.297 153.605 327.221 153.441 327.528C153.033 328.296 152.199 328.444 151.529 327.867H151.528ZM156.743 327.761C156.447 327.464 156.433 327.243 156.433 322.804C156.433 320.248 156.476 318.044 156.53 317.906C156.675 317.527 157.459 317.179 157.91 317.292C158.126 317.346 158.44 317.567 158.61 317.782C158.899 318.15 158.917 318.408 158.905 321.997C158.889 326.447 158.789 327.554 158.373 327.859C157.943 328.173 157.106 328.123 156.744 327.761L156.743 327.761ZM163.266 322.218C162.684 321.996 162.49 321.655 162.49 320.854C162.49 318.973 163.282 317.657 164.866 316.909C165.914 316.414 166.83 316.194 169.14 315.885C171.076 315.626 172.224 315.18 173.19 314.311C174.324 313.292 174.837 312.157 174.833 310.677C174.823 309.291 174.487 308.516 173.515 307.684C172.264 306.614 170.915 306.517 167.37 307.246C166.083 307.51 164.79 307.726 164.497 307.726C163.61 307.725 162.841 307.432 162.426 306.939C161.756 306.143 161.657 305.44 161.836 302.757C162.071 299.251 161.795 298.122 160.409 296.902C158.37 295.107 155.105 295.891 153.886 298.468C153.434 299.422 153.114 301.178 153.247 301.974C153.298 302.276 153.27 303.424 153.186 304.524C153.061 306.164 152.96 306.672 152.629 307.35C151.982 308.671 151.162 309.051 147.606 309.675C144.979 310.136 143.846 310.589 142.636 311.665C141.971 312.254 141.716 312.386 141.232 312.386C140.481 312.386 140.064 311.958 140.064 311.19C140.064 310.711 140.188 310.515 140.931 309.823C142.422 308.435 143.948 307.752 146.493 307.335C149.306 306.874 150.159 306.422 150.524 305.202C150.632 304.844 150.739 303.451 150.767 302.065C150.819 299.415 150.981 298.577 151.731 297.097C152.305 295.963 153.737 294.609 154.988 294.017C155.988 293.543 156.139 293.516 157.83 293.517C159.348 293.518 159.729 293.57 160.369 293.865C162.214 294.713 163.485 296.131 164.08 298.004C164.412 299.049 164.476 300.884 164.278 303.652C164.143 305.537 163.93 305.429 166.631 304.843C171.266 303.837 173.441 304.125 175.431 306.007C178.108 308.539 178.04 312.919 175.278 315.814C173.845 317.316 172.294 317.997 169.47 318.366C167.077 318.678 165.678 319.105 165.337 319.625C165.195 319.841 165.023 320.375 164.954 320.813C164.885 321.25 164.704 321.73 164.552 321.879C164.239 322.186 163.613 322.351 163.266 322.218H163.266ZM184.857 318.291C184.331 317.765 184.34 317.355 184.909 315.877C185.712 313.796 185.99 312.303 185.993 310.056C186.003 305.906 184.418 302.223 181.448 299.468C179.441 297.607 177.293 296.51 174.357 295.847C173.44 295.639 172.635 295.414 172.569 295.347C172.502 295.28 172.2 294.645 171.897 293.936C170.54 290.759 168.202 288.1 165.402 286.549C163.375 285.427 160.166 284.588 157.889 284.587C155.793 284.586 152.777 285.388 150.902 286.446C149.477 287.25 148.512 286.942 148.512 285.681C148.512 284.928 148.927 284.57 150.855 283.667C154.779 281.828 159.414 281.631 163.832 283.114C167.29 284.274 170.519 286.771 172.549 289.851C173.064 290.633 173.682 291.724 173.922 292.274L174.358 293.275L175.193 293.448C178.036 294.038 181.034 295.612 183.251 297.678C187.009 301.18 189.021 306.672 188.44 311.839C188.129 314.604 187.217 317.558 186.461 318.248C185.987 318.681 185.266 318.7 184.857 318.291L184.857 318.291ZM143.768 316.508C143.309 316.049 143.27 315.36 143.675 314.86C143.933 314.542 144.371 314.44 147.752 313.915C152.192 313.226 152.74 313.197 153.171 313.628C153.582 314.039 153.592 315.033 153.189 315.398C152.977 315.59 151.805 315.833 148.957 316.274C146.791 316.61 144.823 316.886 144.584 316.887C144.328 316.888 143.994 316.733 143.769 316.508H143.768ZM157.566 314.1C156.511 313.457 156.515 313.485 156.465 306.331C156.432 301.613 156.465 299.797 156.602 299.547C156.883 299.023 157.571 298.793 158.147 299.032C158.407 299.14 158.686 299.353 158.768 299.507C158.856 299.672 158.918 302.297 158.918 305.94C158.918 309.324 158.973 312.059 159.042 312.017C159.236 311.897 170.028 310.211 170.603 310.211C171.424 310.211 171.808 310.578 171.808 311.361C171.808 311.819 171.716 312.111 171.512 312.295C171.29 312.495 169.741 312.797 165.416 313.481C162.226 313.986 159.267 314.4 158.84 314.402C158.34 314.403 157.886 314.296 157.566 314.1H157.566ZM140.176 305.678C139.75 305.472 139.44 304.745 139.565 304.246C139.618 304.036 139.853 303.731 140.087 303.568C140.719 303.13 142.711 302.351 143.775 302.126C145.216 301.823 145.192 301.85 145.297 300.396C145.478 297.881 146.626 294.889 148.227 292.761C149.709 290.792 152.148 289.101 154.647 288.312C156.317 287.784 159.211 287.704 160.942 288.138C165.354 289.243 168.59 292.585 169.651 297.132L169.985 298.564H170.73C171.747 298.564 173.724 298.844 174.759 299.135C175.867 299.448 178.113 300.602 178.758 301.191C179.431 301.807 179.475 302.723 178.854 303.211C178.26 303.678 177.898 303.616 176.718 302.84C174.701 301.516 172.481 300.961 169.867 301.129C168.375 301.224 168.301 301.214 167.986 300.867C167.751 300.606 167.609 300.13 167.478 299.163C167.109 296.42 166.154 294.459 164.365 292.772C159.74 288.409 152.049 290.11 149.061 296.157C148.324 297.648 147.787 299.83 147.649 301.889C147.515 303.88 147.378 304.082 146.047 304.243C144.874 304.386 142.768 305.002 141.831 305.477C141.007 305.894 140.7 305.932 140.176 305.678L140.176 305.678ZM189.429 300.621C189.213 300.301 188.677 299.48 188.237 298.797C187.78 298.086 186.735 296.849 185.796 295.909C183.444 293.551 181.274 292.175 178.243 291.116C177.479 290.849 176.775 290.581 176.679 290.52C176.583 290.46 176.152 289.816 175.722 289.09C172.282 283.282 166.086 279.479 159.384 279.062C157.585 278.95 157.137 278.794 156.889 278.194C156.728 277.807 156.738 277.643 156.949 277.202C157.269 276.529 157.631 276.441 159.54 276.566C163.762 276.842 168.125 278.385 171.539 280.808C173.48 282.186 175.76 284.557 177.151 286.645C178.334 288.422 178.351 288.438 179.308 288.789C180.782 289.329 182.925 290.427 184.369 291.382C185.787 292.32 188.335 294.675 189.329 295.966C190.537 297.536 191.687 299.52 191.687 300.036C191.687 300.71 191.14 301.204 190.394 301.204C189.904 301.204 189.763 301.119 189.429 300.621H189.429ZM140.753 297.662C140.494 297.402 140.281 297.05 140.281 296.88C140.281 296.393 141.186 293.952 141.873 292.586C142.665 291.009 143.756 289.392 144.786 288.264C145.498 287.485 145.662 287.382 146.187 287.382C146.644 287.382 146.856 287.476 147.103 287.791C147.62 288.447 147.516 288.92 146.631 289.951C145.053 291.788 143.914 293.787 143.072 296.198C142.529 297.755 142.426 297.894 141.709 298.037C141.307 298.118 141.145 298.053 140.753 297.662ZM189.9 291.923C187.164 289.296 184.167 287.335 181.029 286.118C180.535 285.926 180.236 285.642 179.722 284.878C178.851 283.585 177.351 281.791 176.169 280.631C175.35 279.827 175.225 279.628 175.225 279.128C175.225 278.432 175.783 277.908 176.527 277.908C176.934 277.908 177.244 278.147 178.489 279.422C179.303 280.255 180.449 281.582 181.037 282.371L182.106 283.805L183.907 284.671C186.219 285.782 188.712 287.451 190.69 289.213C192.434 290.766 192.769 291.303 192.461 292.047C192.235 292.593 191.887 292.817 191.269 292.817C190.947 292.817 190.584 292.58 189.9 291.923ZM190.134 284.769C188.669 283.697 187.295 282.861 185.543 281.975C184.131 281.261 183.933 281.105 183.228 280.14C182.218 278.759 179.655 276.107 178.181 274.915C171.345 269.394 162.14 266.818 153.602 268.037C151.764 268.3 151.598 268.302 151.236 268.065C150.537 267.607 150.52 266.479 151.205 266.03C152.186 265.387 158.778 265.047 162.024 265.472C171.145 266.667 179.084 271.016 184.659 277.875C185.763 279.232 185.923 279.363 187.4 280.121C189.034 280.959 191.765 282.713 192.502 283.398C193.022 283.881 193.062 284.531 192.607 285.109C192.089 285.767 191.361 285.667 190.134 284.769L190.134 284.769ZM142.088 284.886C141.767 284.633 141.679 284.429 141.679 283.936C141.679 283.373 141.768 283.227 142.547 282.511C143.832 281.331 145.909 279.887 147.588 279.008C149.244 278.14 151.996 277.164 153.181 277.024C153.852 276.944 154.01 276.981 154.341 277.292C154.801 277.724 154.852 278.494 154.453 278.985C154.277 279.201 153.752 279.429 152.963 279.63C149.745 280.453 147.337 281.778 143.956 284.584C143.112 285.285 142.684 285.354 142.088 284.886ZM171.264 276.951C169.053 275.647 166.018 274.515 162.937 273.844C161.536 273.539 160.877 273.493 157.908 273.493C154.96 273.493 154.275 273.54 152.915 273.837C151.031 274.248 148.607 275.069 146.821 275.903C146.105 276.237 145.371 276.508 145.191 276.506C144.411 276.493 143.861 275.533 144.186 274.749C144.547 273.877 148.977 272.082 152.562 271.357C154.124 271.04 154.773 270.998 157.986 271.002C161.371 271.007 161.782 271.039 163.654 271.437C164.765 271.673 166.407 272.111 167.304 272.409C169.108 273.009 172.313 274.527 173.328 275.262C173.908 275.682 173.982 275.806 173.982 276.356C173.982 277.731 172.965 277.954 171.264 276.951ZM188.561 277.209C188.095 276.966 187.406 276.328 186.599 275.391C183.464 271.751 180.125 269.018 176.019 266.729C175.067 266.199 174.219 265.636 174.135 265.479C173.718 264.701 174.314 263.62 175.159 263.62C175.988 263.62 180.339 266.238 182.912 268.284C184.508 269.554 187.085 272.056 188.402 273.615C188.969 274.285 189.693 274.967 190.011 275.129C190.974 275.62 191.228 276.624 190.551 277.26C190.086 277.696 189.466 277.68 188.561 277.209V277.209ZM169.366 263.931C168.664 263.688 167.422 263.335 166.605 263.146C165.038 262.784 164.509 262.417 164.509 261.692C164.509 261.242 164.923 260.681 165.385 260.506C166.106 260.231 171.252 261.652 171.906 262.306C172.505 262.906 172.38 263.787 171.641 264.169C171.059 264.471 170.866 264.45 169.366 263.931V263.931Z" fill="white"/>
<path d="M371.122 230.104C371.122 230.104 371.381 224.544 371.43 223.176C371.48 221.809 371.798 218.399 371.798 218.399C371.798 218.399 371.429 212.492 370.999 210.418C370.57 208.345 361.562 210.126 361.562 210.126C361.562 210.126 371.54 220.296 371.021 210.512C370.683 206.017 366.556 197.897 365.388 196.084C363.114 192.556 362.596 195.833 362.596 195.833L365.625 209.417C365.625 209.417 355.923 209.694 354.291 211.507C352.908 213.043 354.004 216.791 354.004 216.791C354.004 216.791 351.357 218.626 351.458 220.218C351.722 224.369 355.643 231.452 355.643 231.452L358.39 234.229L358.306 237.245L371.95 235.446L371.122 230.104Z" fill="#FAB99C"/>
<path d="M274.495 225.985C274.495 225.985 275.909 220.707 275.729 219.161C275.55 217.615 273.757 214.681 273.757 214.681C273.757 214.681 274.308 208.087 275.529 206.306C276.751 204.526 279.457 203.785 279.457 203.785C279.457 203.785 278.139 208.649 278.511 210.499C278.883 212.349 280.648 214.344 280.648 214.344C280.648 214.344 284.392 198.951 287.391 196.015C290.39 193.078 293.116 193.975 293.116 193.975L288.244 208.622C288.244 208.622 293.838 209.451 295.029 211.579C296.037 213.384 293.737 217.048 293.737 217.048C293.737 217.048 297.556 219.728 297.105 221.258C295.928 225.247 289.29 230.729 289.29 230.729L285.997 232.829L285.411 235.788L272.504 231.011L274.495 225.985Z" fill="#FAB99C"/>
</g>
<defs>
<clipPath id="clip0">
<rect width="622.107" height="577.879" fill="white"/>
</clipPath>
</defs>
</svg>
